G04 #@! TF.FileFunction,Legend,Top*
%FSLAX46Y46*%
G04 Gerber Fmt 4.6, Leading zero omitted, Abs format (unit mm)*
G04 Created by KiCad (PCBNEW 4.0.3+e1-6302~38~ubuntu16.04.1-stable) date Sat Sep 24 13:38:38 2016*
%MOMM*%
%LPD*%
G01*
G04 APERTURE LIST*
%ADD10C,0.100000*%
%ADD11C,0.250000*%
%ADD12C,0.150000*%
G04 APERTURE END LIST*
D10*
D11*
X92964286Y-111260000D02*
X92869048Y-111212381D01*
X92726191Y-111212381D01*
X92583333Y-111260000D01*
X92488095Y-111355238D01*
X92440476Y-111450476D01*
X92392857Y-111640952D01*
X92392857Y-111783810D01*
X92440476Y-111974286D01*
X92488095Y-112069524D01*
X92583333Y-112164762D01*
X92726191Y-112212381D01*
X92821429Y-112212381D01*
X92964286Y-112164762D01*
X93011905Y-112117143D01*
X93011905Y-111783810D01*
X92821429Y-111783810D01*
X93440476Y-112212381D02*
X93440476Y-111212381D01*
X94011905Y-112212381D01*
X94011905Y-111212381D01*
X94488095Y-112212381D02*
X94488095Y-111212381D01*
X94726190Y-111212381D01*
X94869048Y-111260000D01*
X94964286Y-111355238D01*
X95011905Y-111450476D01*
X95059524Y-111640952D01*
X95059524Y-111783810D01*
X95011905Y-111974286D01*
X94964286Y-112069524D01*
X94869048Y-112164762D01*
X94726190Y-112212381D01*
X94488095Y-112212381D01*
X90948095Y-109291429D02*
X91710000Y-109291429D01*
X91329048Y-109672381D02*
X91329048Y-108910476D01*
X92710000Y-109672381D02*
X92138571Y-109672381D01*
X92424285Y-109672381D02*
X92424285Y-108672381D01*
X92329047Y-108815238D01*
X92233809Y-108910476D01*
X92138571Y-108958095D01*
X92995714Y-108672381D02*
X93329047Y-109672381D01*
X93662381Y-108672381D01*
X94138571Y-109100952D02*
X94043333Y-109053333D01*
X93995714Y-109005714D01*
X93948095Y-108910476D01*
X93948095Y-108862857D01*
X93995714Y-108767619D01*
X94043333Y-108720000D01*
X94138571Y-108672381D01*
X94329048Y-108672381D01*
X94424286Y-108720000D01*
X94471905Y-108767619D01*
X94519524Y-108862857D01*
X94519524Y-108910476D01*
X94471905Y-109005714D01*
X94424286Y-109053333D01*
X94329048Y-109100952D01*
X94138571Y-109100952D01*
X94043333Y-109148571D01*
X93995714Y-109196190D01*
X93948095Y-109291429D01*
X93948095Y-109481905D01*
X93995714Y-109577143D01*
X94043333Y-109624762D01*
X94138571Y-109672381D01*
X94329048Y-109672381D01*
X94424286Y-109624762D01*
X94471905Y-109577143D01*
X94519524Y-109481905D01*
X94519524Y-109291429D01*
X94471905Y-109196190D01*
X94424286Y-109148571D01*
X94329048Y-109100952D01*
X90726190Y-107037143D02*
X90678571Y-107084762D01*
X90535714Y-107132381D01*
X90440476Y-107132381D01*
X90297618Y-107084762D01*
X90202380Y-106989524D01*
X90154761Y-106894286D01*
X90107142Y-106703810D01*
X90107142Y-106560952D01*
X90154761Y-106370476D01*
X90202380Y-106275238D01*
X90297618Y-106180000D01*
X90440476Y-106132381D01*
X90535714Y-106132381D01*
X90678571Y-106180000D01*
X90726190Y-106227619D01*
X91488095Y-106608571D02*
X91630952Y-106656190D01*
X91678571Y-106703810D01*
X91726190Y-106799048D01*
X91726190Y-106941905D01*
X91678571Y-107037143D01*
X91630952Y-107084762D01*
X91535714Y-107132381D01*
X91154761Y-107132381D01*
X91154761Y-106132381D01*
X91488095Y-106132381D01*
X91583333Y-106180000D01*
X91630952Y-106227619D01*
X91678571Y-106322857D01*
X91678571Y-106418095D01*
X91630952Y-106513333D01*
X91583333Y-106560952D01*
X91488095Y-106608571D01*
X91154761Y-106608571D01*
X92630952Y-107132381D02*
X92154761Y-107132381D01*
X92154761Y-106132381D01*
X92726190Y-107227619D02*
X93488095Y-107227619D01*
X93726190Y-107132381D02*
X93726190Y-106132381D01*
X93964285Y-106132381D01*
X94107143Y-106180000D01*
X94202381Y-106275238D01*
X94250000Y-106370476D01*
X94297619Y-106560952D01*
X94297619Y-106703810D01*
X94250000Y-106894286D01*
X94202381Y-106989524D01*
X94107143Y-107084762D01*
X93964285Y-107132381D01*
X93726190Y-107132381D01*
X94583333Y-106132381D02*
X95154762Y-106132381D01*
X94869047Y-107132381D02*
X94869047Y-106132381D01*
X91630952Y-104544762D02*
X91773809Y-104592381D01*
X92011905Y-104592381D01*
X92107143Y-104544762D01*
X92154762Y-104497143D01*
X92202381Y-104401905D01*
X92202381Y-104306667D01*
X92154762Y-104211429D01*
X92107143Y-104163810D01*
X92011905Y-104116190D01*
X91821428Y-104068571D01*
X91726190Y-104020952D01*
X91678571Y-103973333D01*
X91630952Y-103878095D01*
X91630952Y-103782857D01*
X91678571Y-103687619D01*
X91726190Y-103640000D01*
X91821428Y-103592381D01*
X92059524Y-103592381D01*
X92202381Y-103640000D01*
X92630952Y-104592381D02*
X92630952Y-103592381D01*
X92630952Y-104068571D02*
X93202381Y-104068571D01*
X93202381Y-104592381D02*
X93202381Y-103592381D01*
X94154762Y-104592381D02*
X93678571Y-104592381D01*
X93678571Y-103592381D01*
X94488095Y-104592381D02*
X94488095Y-103592381D01*
X94726190Y-103592381D01*
X94869048Y-103640000D01*
X94964286Y-103735238D01*
X95011905Y-103830476D01*
X95059524Y-104020952D01*
X95059524Y-104163810D01*
X95011905Y-104354286D01*
X94964286Y-104449524D01*
X94869048Y-104544762D01*
X94726190Y-104592381D01*
X94488095Y-104592381D01*
X93250000Y-102052381D02*
X92916666Y-101576190D01*
X92678571Y-102052381D02*
X92678571Y-101052381D01*
X93059524Y-101052381D01*
X93154762Y-101100000D01*
X93202381Y-101147619D01*
X93250000Y-101242857D01*
X93250000Y-101385714D01*
X93202381Y-101480952D01*
X93154762Y-101528571D01*
X93059524Y-101576190D01*
X92678571Y-101576190D01*
X94154762Y-102052381D02*
X93678571Y-102052381D01*
X93678571Y-101052381D01*
X94488095Y-102052381D02*
X94488095Y-101052381D01*
X94726190Y-101052381D01*
X94869048Y-101100000D01*
X94964286Y-101195238D01*
X95011905Y-101290476D01*
X95059524Y-101480952D01*
X95059524Y-101623810D01*
X95011905Y-101814286D01*
X94964286Y-101909524D01*
X94869048Y-102004762D01*
X94726190Y-102052381D01*
X94488095Y-102052381D01*
X94345238Y-99512381D02*
X93869047Y-99512381D01*
X93869047Y-98512381D01*
X95154762Y-99512381D02*
X94678571Y-99512381D01*
X94678571Y-98512381D01*
X94297619Y-96972381D02*
X93821428Y-96972381D01*
X93821428Y-95972381D01*
X94583333Y-96686667D02*
X95059524Y-96686667D01*
X94488095Y-96972381D02*
X94821428Y-95972381D01*
X95154762Y-96972381D01*
X94202381Y-94432381D02*
X93869047Y-93956190D01*
X93630952Y-94432381D02*
X93630952Y-93432381D01*
X94011905Y-93432381D01*
X94107143Y-93480000D01*
X94154762Y-93527619D01*
X94202381Y-93622857D01*
X94202381Y-93765714D01*
X94154762Y-93860952D01*
X94107143Y-93908571D01*
X94011905Y-93956190D01*
X93630952Y-93956190D01*
X94583333Y-94146667D02*
X95059524Y-94146667D01*
X94488095Y-94432381D02*
X94821428Y-93432381D01*
X95154762Y-94432381D01*
X93535714Y-90892381D02*
X93869047Y-91892381D01*
X94202381Y-90892381D01*
X94964286Y-90892381D02*
X94773809Y-90892381D01*
X94678571Y-90940000D01*
X94630952Y-90987619D01*
X94535714Y-91130476D01*
X94488095Y-91320952D01*
X94488095Y-91701905D01*
X94535714Y-91797143D01*
X94583333Y-91844762D01*
X94678571Y-91892381D01*
X94869048Y-91892381D01*
X94964286Y-91844762D01*
X95011905Y-91797143D01*
X95059524Y-91701905D01*
X95059524Y-91463810D01*
X95011905Y-91368571D01*
X94964286Y-91320952D01*
X94869048Y-91273333D01*
X94678571Y-91273333D01*
X94583333Y-91320952D01*
X94535714Y-91368571D01*
X94488095Y-91463810D01*
X93535714Y-88352381D02*
X93869047Y-89352381D01*
X94202381Y-88352381D01*
X95011905Y-88352381D02*
X94535714Y-88352381D01*
X94488095Y-88828571D01*
X94535714Y-88780952D01*
X94630952Y-88733333D01*
X94869048Y-88733333D01*
X94964286Y-88780952D01*
X95011905Y-88828571D01*
X95059524Y-88923810D01*
X95059524Y-89161905D01*
X95011905Y-89257143D01*
X94964286Y-89304762D01*
X94869048Y-89352381D01*
X94630952Y-89352381D01*
X94535714Y-89304762D01*
X94488095Y-89257143D01*
X93535714Y-85812381D02*
X93869047Y-86812381D01*
X94202381Y-85812381D01*
X94964286Y-86145714D02*
X94964286Y-86812381D01*
X94726190Y-85764762D02*
X94488095Y-86479048D01*
X95107143Y-86479048D01*
X93535714Y-83272381D02*
X93869047Y-84272381D01*
X94202381Y-83272381D01*
X94440476Y-83272381D02*
X95059524Y-83272381D01*
X94726190Y-83653333D01*
X94869048Y-83653333D01*
X94964286Y-83700952D01*
X95011905Y-83748571D01*
X95059524Y-83843810D01*
X95059524Y-84081905D01*
X95011905Y-84177143D01*
X94964286Y-84224762D01*
X94869048Y-84272381D01*
X94583333Y-84272381D01*
X94488095Y-84224762D01*
X94440476Y-84177143D01*
X93535714Y-80732381D02*
X93869047Y-81732381D01*
X94202381Y-80732381D01*
X94488095Y-80827619D02*
X94535714Y-80780000D01*
X94630952Y-80732381D01*
X94869048Y-80732381D01*
X94964286Y-80780000D01*
X95011905Y-80827619D01*
X95059524Y-80922857D01*
X95059524Y-81018095D01*
X95011905Y-81160952D01*
X94440476Y-81732381D01*
X95059524Y-81732381D01*
X93535714Y-78192381D02*
X93869047Y-79192381D01*
X94202381Y-78192381D01*
X95059524Y-79192381D02*
X94488095Y-79192381D01*
X94773809Y-79192381D02*
X94773809Y-78192381D01*
X94678571Y-78335238D01*
X94583333Y-78430476D01*
X94488095Y-78478095D01*
X216177619Y-72017381D02*
X216177619Y-72636429D01*
X215796667Y-72303095D01*
X215796667Y-72445953D01*
X215749048Y-72541191D01*
X215701429Y-72588810D01*
X215606190Y-72636429D01*
X215368095Y-72636429D01*
X215272857Y-72588810D01*
X215225238Y-72541191D01*
X215177619Y-72445953D01*
X215177619Y-72160238D01*
X215225238Y-72065000D01*
X215272857Y-72017381D01*
X215272857Y-73065000D02*
X215225238Y-73112619D01*
X215177619Y-73065000D01*
X215225238Y-73017381D01*
X215272857Y-73065000D01*
X215177619Y-73065000D01*
X216177619Y-73445952D02*
X216177619Y-74112619D01*
X215177619Y-73684047D01*
X216177619Y-74969762D02*
X216177619Y-74493571D01*
X215701429Y-74445952D01*
X215749048Y-74493571D01*
X215796667Y-74588809D01*
X215796667Y-74826905D01*
X215749048Y-74922143D01*
X215701429Y-74969762D01*
X215606190Y-75017381D01*
X215368095Y-75017381D01*
X215272857Y-74969762D01*
X215225238Y-74922143D01*
X215177619Y-74826905D01*
X215177619Y-74588809D01*
X215225238Y-74493571D01*
X215272857Y-74445952D01*
X216177619Y-75636428D02*
X216177619Y-75731667D01*
X216130000Y-75826905D01*
X216082381Y-75874524D01*
X215987143Y-75922143D01*
X215796667Y-75969762D01*
X215558571Y-75969762D01*
X215368095Y-75922143D01*
X215272857Y-75874524D01*
X215225238Y-75826905D01*
X215177619Y-75731667D01*
X215177619Y-75636428D01*
X215225238Y-75541190D01*
X215272857Y-75493571D01*
X215368095Y-75445952D01*
X215558571Y-75398333D01*
X215796667Y-75398333D01*
X215987143Y-75445952D01*
X216082381Y-75493571D01*
X216130000Y-75541190D01*
X216177619Y-75636428D01*
X216177619Y-76588809D02*
X216177619Y-76684048D01*
X216130000Y-76779286D01*
X216082381Y-76826905D01*
X215987143Y-76874524D01*
X215796667Y-76922143D01*
X215558571Y-76922143D01*
X215368095Y-76874524D01*
X215272857Y-76826905D01*
X215225238Y-76779286D01*
X215177619Y-76684048D01*
X215177619Y-76588809D01*
X215225238Y-76493571D01*
X215272857Y-76445952D01*
X215368095Y-76398333D01*
X215558571Y-76350714D01*
X215796667Y-76350714D01*
X215987143Y-76398333D01*
X216082381Y-76445952D01*
X216130000Y-76493571D01*
X216177619Y-76588809D01*
X215177619Y-78112619D02*
X215844286Y-78112619D01*
X216177619Y-78112619D02*
X216130000Y-78065000D01*
X216082381Y-78112619D01*
X216130000Y-78160238D01*
X216177619Y-78112619D01*
X216082381Y-78112619D01*
X215844286Y-78588809D02*
X215177619Y-78588809D01*
X215749048Y-78588809D02*
X215796667Y-78636428D01*
X215844286Y-78731666D01*
X215844286Y-78874524D01*
X215796667Y-78969762D01*
X215701429Y-79017381D01*
X215177619Y-79017381D01*
X214630000Y-27940000D02*
X214630000Y-123190000D01*
X209550000Y-27940000D02*
X216630000Y-27940000D01*
X209550000Y-123190000D02*
X216630000Y-123190000D01*
X214630000Y-123190000D02*
X214043579Y-122063496D01*
X214630000Y-123190000D02*
X215216421Y-122063496D01*
X214630000Y-27940000D02*
X214043579Y-29066504D01*
X214630000Y-27940000D02*
X215216421Y-29066504D01*
X144931191Y-21645714D02*
X144931191Y-22312381D01*
X144693095Y-21264762D02*
X144455000Y-21979048D01*
X145074048Y-21979048D01*
X145455000Y-22217143D02*
X145502619Y-22264762D01*
X145455000Y-22312381D01*
X145407381Y-22264762D01*
X145455000Y-22217143D01*
X145455000Y-22312381D01*
X146074047Y-21740952D02*
X145978809Y-21693333D01*
X145931190Y-21645714D01*
X145883571Y-21550476D01*
X145883571Y-21502857D01*
X145931190Y-21407619D01*
X145978809Y-21360000D01*
X146074047Y-21312381D01*
X146264524Y-21312381D01*
X146359762Y-21360000D01*
X146407381Y-21407619D01*
X146455000Y-21502857D01*
X146455000Y-21550476D01*
X146407381Y-21645714D01*
X146359762Y-21693333D01*
X146264524Y-21740952D01*
X146074047Y-21740952D01*
X145978809Y-21788571D01*
X145931190Y-21836190D01*
X145883571Y-21931429D01*
X145883571Y-22121905D01*
X145931190Y-22217143D01*
X145978809Y-22264762D01*
X146074047Y-22312381D01*
X146264524Y-22312381D01*
X146359762Y-22264762D01*
X146407381Y-22217143D01*
X146455000Y-22121905D01*
X146455000Y-21931429D01*
X146407381Y-21836190D01*
X146359762Y-21788571D01*
X146264524Y-21740952D01*
X147359762Y-21312381D02*
X146883571Y-21312381D01*
X146835952Y-21788571D01*
X146883571Y-21740952D01*
X146978809Y-21693333D01*
X147216905Y-21693333D01*
X147312143Y-21740952D01*
X147359762Y-21788571D01*
X147407381Y-21883810D01*
X147407381Y-22121905D01*
X147359762Y-22217143D01*
X147312143Y-22264762D01*
X147216905Y-22312381D01*
X146978809Y-22312381D01*
X146883571Y-22264762D01*
X146835952Y-22217143D01*
X148026428Y-21312381D02*
X148121667Y-21312381D01*
X148216905Y-21360000D01*
X148264524Y-21407619D01*
X148312143Y-21502857D01*
X148359762Y-21693333D01*
X148359762Y-21931429D01*
X148312143Y-22121905D01*
X148264524Y-22217143D01*
X148216905Y-22264762D01*
X148121667Y-22312381D01*
X148026428Y-22312381D01*
X147931190Y-22264762D01*
X147883571Y-22217143D01*
X147835952Y-22121905D01*
X147788333Y-21931429D01*
X147788333Y-21693333D01*
X147835952Y-21502857D01*
X147883571Y-21407619D01*
X147931190Y-21360000D01*
X148026428Y-21312381D01*
X148978809Y-21312381D02*
X149074048Y-21312381D01*
X149169286Y-21360000D01*
X149216905Y-21407619D01*
X149264524Y-21502857D01*
X149312143Y-21693333D01*
X149312143Y-21931429D01*
X149264524Y-22121905D01*
X149216905Y-22217143D01*
X149169286Y-22264762D01*
X149074048Y-22312381D01*
X148978809Y-22312381D01*
X148883571Y-22264762D01*
X148835952Y-22217143D01*
X148788333Y-22121905D01*
X148740714Y-21931429D01*
X148740714Y-21693333D01*
X148788333Y-21502857D01*
X148835952Y-21407619D01*
X148883571Y-21360000D01*
X148978809Y-21312381D01*
X150502619Y-22312381D02*
X150502619Y-21645714D01*
X150502619Y-21312381D02*
X150455000Y-21360000D01*
X150502619Y-21407619D01*
X150550238Y-21360000D01*
X150502619Y-21312381D01*
X150502619Y-21407619D01*
X150978809Y-21645714D02*
X150978809Y-22312381D01*
X150978809Y-21740952D02*
X151026428Y-21693333D01*
X151121666Y-21645714D01*
X151264524Y-21645714D01*
X151359762Y-21693333D01*
X151407381Y-21788571D01*
X151407381Y-22312381D01*
X86360000Y-22860000D02*
X209550000Y-22860000D01*
X86360000Y-26670000D02*
X86360000Y-20860000D01*
X209550000Y-26670000D02*
X209550000Y-20860000D01*
X209550000Y-22860000D02*
X208423496Y-23446421D01*
X209550000Y-22860000D02*
X208423496Y-22273579D01*
X86360000Y-22860000D02*
X87486504Y-23446421D01*
X86360000Y-22860000D02*
X87486504Y-22273579D01*
X197659524Y-109577143D02*
X197611905Y-109624762D01*
X197469048Y-109672381D01*
X197373810Y-109672381D01*
X197230952Y-109624762D01*
X197135714Y-109529524D01*
X197088095Y-109434286D01*
X197040476Y-109243810D01*
X197040476Y-109100952D01*
X197088095Y-108910476D01*
X197135714Y-108815238D01*
X197230952Y-108720000D01*
X197373810Y-108672381D01*
X197469048Y-108672381D01*
X197611905Y-108720000D01*
X197659524Y-108767619D01*
X198421429Y-109148571D02*
X198564286Y-109196190D01*
X198611905Y-109243810D01*
X198659524Y-109339048D01*
X198659524Y-109481905D01*
X198611905Y-109577143D01*
X198564286Y-109624762D01*
X198469048Y-109672381D01*
X198088095Y-109672381D01*
X198088095Y-108672381D01*
X198421429Y-108672381D01*
X198516667Y-108720000D01*
X198564286Y-108767619D01*
X198611905Y-108862857D01*
X198611905Y-108958095D01*
X198564286Y-109053333D01*
X198516667Y-109100952D01*
X198421429Y-109148571D01*
X198088095Y-109148571D01*
X199564286Y-109672381D02*
X199088095Y-109672381D01*
X199088095Y-108672381D01*
X199659524Y-109767619D02*
X200421429Y-109767619D01*
X200659524Y-109672381D02*
X200659524Y-108672381D01*
X200897619Y-108672381D01*
X201040477Y-108720000D01*
X201135715Y-108815238D01*
X201183334Y-108910476D01*
X201230953Y-109100952D01*
X201230953Y-109243810D01*
X201183334Y-109434286D01*
X201135715Y-109529524D01*
X201040477Y-109624762D01*
X200897619Y-109672381D01*
X200659524Y-109672381D01*
X201516667Y-108672381D02*
X202088096Y-108672381D01*
X201802381Y-109672381D02*
X201802381Y-108672381D01*
X197088095Y-107132381D02*
X197088095Y-106132381D01*
X197326190Y-106132381D01*
X197469048Y-106180000D01*
X197564286Y-106275238D01*
X197611905Y-106370476D01*
X197659524Y-106560952D01*
X197659524Y-106703810D01*
X197611905Y-106894286D01*
X197564286Y-106989524D01*
X197469048Y-107084762D01*
X197326190Y-107132381D01*
X197088095Y-107132381D01*
X198088095Y-107132381D02*
X198088095Y-106132381D01*
X198897619Y-106608571D02*
X198564285Y-106608571D01*
X198564285Y-107132381D02*
X198564285Y-106132381D01*
X199040476Y-106132381D01*
X199754762Y-106608571D02*
X199421428Y-106608571D01*
X199421428Y-107132381D02*
X199421428Y-106132381D01*
X199897619Y-106132381D01*
X200040476Y-107227619D02*
X200802381Y-107227619D01*
X200992857Y-107084762D02*
X201135714Y-107132381D01*
X201373810Y-107132381D01*
X201469048Y-107084762D01*
X201516667Y-107037143D01*
X201564286Y-106941905D01*
X201564286Y-106846667D01*
X201516667Y-106751429D01*
X201469048Y-106703810D01*
X201373810Y-106656190D01*
X201183333Y-106608571D01*
X201088095Y-106560952D01*
X201040476Y-106513333D01*
X200992857Y-106418095D01*
X200992857Y-106322857D01*
X201040476Y-106227619D01*
X201088095Y-106180000D01*
X201183333Y-106132381D01*
X201421429Y-106132381D01*
X201564286Y-106180000D01*
X201992857Y-106608571D02*
X202326191Y-106608571D01*
X202469048Y-107132381D02*
X201992857Y-107132381D01*
X201992857Y-106132381D01*
X202469048Y-106132381D01*
X203373810Y-107132381D02*
X202897619Y-107132381D01*
X202897619Y-106132381D01*
X197088095Y-104068571D02*
X197421429Y-104068571D01*
X197564286Y-104592381D02*
X197088095Y-104592381D01*
X197088095Y-103592381D01*
X197564286Y-103592381D01*
X198564286Y-104497143D02*
X198516667Y-104544762D01*
X198373810Y-104592381D01*
X198278572Y-104592381D01*
X198135714Y-104544762D01*
X198040476Y-104449524D01*
X197992857Y-104354286D01*
X197945238Y-104163810D01*
X197945238Y-104020952D01*
X197992857Y-103830476D01*
X198040476Y-103735238D01*
X198135714Y-103640000D01*
X198278572Y-103592381D01*
X198373810Y-103592381D01*
X198516667Y-103640000D01*
X198564286Y-103687619D01*
X199516667Y-103640000D02*
X199421429Y-103592381D01*
X199278572Y-103592381D01*
X199135714Y-103640000D01*
X199040476Y-103735238D01*
X198992857Y-103830476D01*
X198945238Y-104020952D01*
X198945238Y-104163810D01*
X198992857Y-104354286D01*
X199040476Y-104449524D01*
X199135714Y-104544762D01*
X199278572Y-104592381D01*
X199373810Y-104592381D01*
X199516667Y-104544762D01*
X199564286Y-104497143D01*
X199564286Y-104163810D01*
X199373810Y-104163810D01*
X199754762Y-104687619D02*
X200516667Y-104687619D01*
X200754762Y-104592381D02*
X200754762Y-103592381D01*
X201135715Y-103592381D01*
X201230953Y-103640000D01*
X201278572Y-103687619D01*
X201326191Y-103782857D01*
X201326191Y-103925714D01*
X201278572Y-104020952D01*
X201230953Y-104068571D01*
X201135715Y-104116190D01*
X200754762Y-104116190D01*
X201659524Y-103592381D02*
X201897619Y-104592381D01*
X202088096Y-103878095D01*
X202278572Y-104592381D01*
X202516667Y-103592381D01*
X202897619Y-104592381D02*
X202897619Y-103592381D01*
X203135714Y-103592381D01*
X203278572Y-103640000D01*
X203373810Y-103735238D01*
X203421429Y-103830476D01*
X203469048Y-104020952D01*
X203469048Y-104163810D01*
X203421429Y-104354286D01*
X203373810Y-104449524D01*
X203278572Y-104544762D01*
X203135714Y-104592381D01*
X202897619Y-104592381D01*
X197088095Y-101528571D02*
X197421429Y-101528571D01*
X197564286Y-102052381D02*
X197088095Y-102052381D01*
X197088095Y-101052381D01*
X197564286Y-101052381D01*
X198564286Y-101957143D02*
X198516667Y-102004762D01*
X198373810Y-102052381D01*
X198278572Y-102052381D01*
X198135714Y-102004762D01*
X198040476Y-101909524D01*
X197992857Y-101814286D01*
X197945238Y-101623810D01*
X197945238Y-101480952D01*
X197992857Y-101290476D01*
X198040476Y-101195238D01*
X198135714Y-101100000D01*
X198278572Y-101052381D01*
X198373810Y-101052381D01*
X198516667Y-101100000D01*
X198564286Y-101147619D01*
X199516667Y-101100000D02*
X199421429Y-101052381D01*
X199278572Y-101052381D01*
X199135714Y-101100000D01*
X199040476Y-101195238D01*
X198992857Y-101290476D01*
X198945238Y-101480952D01*
X198945238Y-101623810D01*
X198992857Y-101814286D01*
X199040476Y-101909524D01*
X199135714Y-102004762D01*
X199278572Y-102052381D01*
X199373810Y-102052381D01*
X199516667Y-102004762D01*
X199564286Y-101957143D01*
X199564286Y-101623810D01*
X199373810Y-101623810D01*
X199754762Y-102147619D02*
X200516667Y-102147619D01*
X201326191Y-102052381D02*
X200992857Y-101576190D01*
X200754762Y-102052381D02*
X200754762Y-101052381D01*
X201135715Y-101052381D01*
X201230953Y-101100000D01*
X201278572Y-101147619D01*
X201326191Y-101242857D01*
X201326191Y-101385714D01*
X201278572Y-101480952D01*
X201230953Y-101528571D01*
X201135715Y-101576190D01*
X200754762Y-101576190D01*
X201707143Y-102004762D02*
X201850000Y-102052381D01*
X202088096Y-102052381D01*
X202183334Y-102004762D01*
X202230953Y-101957143D01*
X202278572Y-101861905D01*
X202278572Y-101766667D01*
X202230953Y-101671429D01*
X202183334Y-101623810D01*
X202088096Y-101576190D01*
X201897619Y-101528571D01*
X201802381Y-101480952D01*
X201754762Y-101433333D01*
X201707143Y-101338095D01*
X201707143Y-101242857D01*
X201754762Y-101147619D01*
X201802381Y-101100000D01*
X201897619Y-101052381D01*
X202135715Y-101052381D01*
X202278572Y-101100000D01*
X202564286Y-101052381D02*
X203135715Y-101052381D01*
X202850000Y-102052381D02*
X202850000Y-101052381D01*
X197040476Y-99226667D02*
X197516667Y-99226667D01*
X196945238Y-99512381D02*
X197278571Y-98512381D01*
X197611905Y-99512381D01*
X197945238Y-99512381D02*
X197945238Y-98512381D01*
X198183333Y-98512381D01*
X198326191Y-98560000D01*
X198421429Y-98655238D01*
X198469048Y-98750476D01*
X198516667Y-98940952D01*
X198516667Y-99083810D01*
X198469048Y-99274286D01*
X198421429Y-99369524D01*
X198326191Y-99464762D01*
X198183333Y-99512381D01*
X197945238Y-99512381D01*
X199516667Y-99417143D02*
X199469048Y-99464762D01*
X199326191Y-99512381D01*
X199230953Y-99512381D01*
X199088095Y-99464762D01*
X198992857Y-99369524D01*
X198945238Y-99274286D01*
X198897619Y-99083810D01*
X198897619Y-98940952D01*
X198945238Y-98750476D01*
X198992857Y-98655238D01*
X199088095Y-98560000D01*
X199230953Y-98512381D01*
X199326191Y-98512381D01*
X199469048Y-98560000D01*
X199516667Y-98607619D01*
X200421429Y-99512381D02*
X199945238Y-99512381D01*
X199945238Y-98512381D01*
X200754762Y-99512381D02*
X200754762Y-98512381D01*
X201326191Y-99512381D02*
X200897619Y-98940952D01*
X201326191Y-98512381D02*
X200754762Y-99083810D01*
X196898095Y-96448571D02*
X197231429Y-96448571D01*
X197374286Y-96972381D02*
X196898095Y-96972381D01*
X196898095Y-95972381D01*
X197374286Y-95972381D01*
X198374286Y-96877143D02*
X198326667Y-96924762D01*
X198183810Y-96972381D01*
X198088572Y-96972381D01*
X197945714Y-96924762D01*
X197850476Y-96829524D01*
X197802857Y-96734286D01*
X197755238Y-96543810D01*
X197755238Y-96400952D01*
X197802857Y-96210476D01*
X197850476Y-96115238D01*
X197945714Y-96020000D01*
X198088572Y-95972381D01*
X198183810Y-95972381D01*
X198326667Y-96020000D01*
X198374286Y-96067619D01*
X199326667Y-96020000D02*
X199231429Y-95972381D01*
X199088572Y-95972381D01*
X198945714Y-96020000D01*
X198850476Y-96115238D01*
X198802857Y-96210476D01*
X198755238Y-96400952D01*
X198755238Y-96543810D01*
X198802857Y-96734286D01*
X198850476Y-96829524D01*
X198945714Y-96924762D01*
X199088572Y-96972381D01*
X199183810Y-96972381D01*
X199326667Y-96924762D01*
X199374286Y-96877143D01*
X199374286Y-96543810D01*
X199183810Y-96543810D01*
X199564762Y-97067619D02*
X200326667Y-97067619D01*
X200517143Y-96924762D02*
X200660000Y-96972381D01*
X200898096Y-96972381D01*
X200993334Y-96924762D01*
X201040953Y-96877143D01*
X201088572Y-96781905D01*
X201088572Y-96686667D01*
X201040953Y-96591429D01*
X200993334Y-96543810D01*
X200898096Y-96496190D01*
X200707619Y-96448571D01*
X200612381Y-96400952D01*
X200564762Y-96353333D01*
X200517143Y-96258095D01*
X200517143Y-96162857D01*
X200564762Y-96067619D01*
X200612381Y-96020000D01*
X200707619Y-95972381D01*
X200945715Y-95972381D01*
X201088572Y-96020000D01*
X201374286Y-95972381D02*
X201945715Y-95972381D01*
X201660000Y-96972381D02*
X201660000Y-95972381D01*
X202231429Y-96686667D02*
X202707620Y-96686667D01*
X202136191Y-96972381D02*
X202469524Y-95972381D01*
X202802858Y-96972381D01*
X203707620Y-96972381D02*
X203374286Y-96496190D01*
X203136191Y-96972381D02*
X203136191Y-95972381D01*
X203517144Y-95972381D01*
X203612382Y-96020000D01*
X203660001Y-96067619D01*
X203707620Y-96162857D01*
X203707620Y-96305714D01*
X203660001Y-96400952D01*
X203612382Y-96448571D01*
X203517144Y-96496190D01*
X203136191Y-96496190D01*
X203993334Y-95972381D02*
X204564763Y-95972381D01*
X204279048Y-96972381D02*
X204279048Y-95972381D01*
X197088095Y-93908571D02*
X197421429Y-93908571D01*
X197564286Y-94432381D02*
X197088095Y-94432381D01*
X197088095Y-93432381D01*
X197564286Y-93432381D01*
X198564286Y-94337143D02*
X198516667Y-94384762D01*
X198373810Y-94432381D01*
X198278572Y-94432381D01*
X198135714Y-94384762D01*
X198040476Y-94289524D01*
X197992857Y-94194286D01*
X197945238Y-94003810D01*
X197945238Y-93860952D01*
X197992857Y-93670476D01*
X198040476Y-93575238D01*
X198135714Y-93480000D01*
X198278572Y-93432381D01*
X198373810Y-93432381D01*
X198516667Y-93480000D01*
X198564286Y-93527619D01*
X199516667Y-93480000D02*
X199421429Y-93432381D01*
X199278572Y-93432381D01*
X199135714Y-93480000D01*
X199040476Y-93575238D01*
X198992857Y-93670476D01*
X198945238Y-93860952D01*
X198945238Y-94003810D01*
X198992857Y-94194286D01*
X199040476Y-94289524D01*
X199135714Y-94384762D01*
X199278572Y-94432381D01*
X199373810Y-94432381D01*
X199516667Y-94384762D01*
X199564286Y-94337143D01*
X199564286Y-94003810D01*
X199373810Y-94003810D01*
X199754762Y-94527619D02*
X200516667Y-94527619D01*
X201326191Y-94337143D02*
X201278572Y-94384762D01*
X201135715Y-94432381D01*
X201040477Y-94432381D01*
X200897619Y-94384762D01*
X200802381Y-94289524D01*
X200754762Y-94194286D01*
X200707143Y-94003810D01*
X200707143Y-93860952D01*
X200754762Y-93670476D01*
X200802381Y-93575238D01*
X200897619Y-93480000D01*
X201040477Y-93432381D01*
X201135715Y-93432381D01*
X201278572Y-93480000D01*
X201326191Y-93527619D01*
X201707143Y-94384762D02*
X201850000Y-94432381D01*
X202088096Y-94432381D01*
X202183334Y-94384762D01*
X202230953Y-94337143D01*
X202278572Y-94241905D01*
X202278572Y-94146667D01*
X202230953Y-94051429D01*
X202183334Y-94003810D01*
X202088096Y-93956190D01*
X201897619Y-93908571D01*
X201802381Y-93860952D01*
X201754762Y-93813333D01*
X201707143Y-93718095D01*
X201707143Y-93622857D01*
X201754762Y-93527619D01*
X201802381Y-93480000D01*
X201897619Y-93432381D01*
X202135715Y-93432381D01*
X202278572Y-93480000D01*
X197040476Y-91844762D02*
X197183333Y-91892381D01*
X197421429Y-91892381D01*
X197516667Y-91844762D01*
X197564286Y-91797143D01*
X197611905Y-91701905D01*
X197611905Y-91606667D01*
X197564286Y-91511429D01*
X197516667Y-91463810D01*
X197421429Y-91416190D01*
X197230952Y-91368571D01*
X197135714Y-91320952D01*
X197088095Y-91273333D01*
X197040476Y-91178095D01*
X197040476Y-91082857D01*
X197088095Y-90987619D01*
X197135714Y-90940000D01*
X197230952Y-90892381D01*
X197469048Y-90892381D01*
X197611905Y-90940000D01*
X198040476Y-91892381D02*
X198040476Y-90892381D01*
X198421429Y-90892381D01*
X198516667Y-90940000D01*
X198564286Y-90987619D01*
X198611905Y-91082857D01*
X198611905Y-91225714D01*
X198564286Y-91320952D01*
X198516667Y-91368571D01*
X198421429Y-91416190D01*
X198040476Y-91416190D01*
X199040476Y-91892381D02*
X199040476Y-90892381D01*
X199278571Y-91987619D02*
X200040476Y-91987619D01*
X200278571Y-91892381D02*
X200278571Y-90892381D01*
X200516666Y-90892381D01*
X200659524Y-90940000D01*
X200754762Y-91035238D01*
X200802381Y-91130476D01*
X200850000Y-91320952D01*
X200850000Y-91463810D01*
X200802381Y-91654286D01*
X200754762Y-91749524D01*
X200659524Y-91844762D01*
X200516666Y-91892381D01*
X200278571Y-91892381D01*
X201278571Y-91892381D02*
X201278571Y-90892381D01*
X201754761Y-91892381D02*
X201754761Y-90892381D01*
X202326190Y-91892381D01*
X202326190Y-90892381D01*
X197040476Y-89304762D02*
X197183333Y-89352381D01*
X197421429Y-89352381D01*
X197516667Y-89304762D01*
X197564286Y-89257143D01*
X197611905Y-89161905D01*
X197611905Y-89066667D01*
X197564286Y-88971429D01*
X197516667Y-88923810D01*
X197421429Y-88876190D01*
X197230952Y-88828571D01*
X197135714Y-88780952D01*
X197088095Y-88733333D01*
X197040476Y-88638095D01*
X197040476Y-88542857D01*
X197088095Y-88447619D01*
X197135714Y-88400000D01*
X197230952Y-88352381D01*
X197469048Y-88352381D01*
X197611905Y-88400000D01*
X198040476Y-89352381D02*
X198040476Y-88352381D01*
X198421429Y-88352381D01*
X198516667Y-88400000D01*
X198564286Y-88447619D01*
X198611905Y-88542857D01*
X198611905Y-88685714D01*
X198564286Y-88780952D01*
X198516667Y-88828571D01*
X198421429Y-88876190D01*
X198040476Y-88876190D01*
X199040476Y-89352381D02*
X199040476Y-88352381D01*
X199278571Y-89447619D02*
X200040476Y-89447619D01*
X200230952Y-89304762D02*
X200373809Y-89352381D01*
X200611905Y-89352381D01*
X200707143Y-89304762D01*
X200754762Y-89257143D01*
X200802381Y-89161905D01*
X200802381Y-89066667D01*
X200754762Y-88971429D01*
X200707143Y-88923810D01*
X200611905Y-88876190D01*
X200421428Y-88828571D01*
X200326190Y-88780952D01*
X200278571Y-88733333D01*
X200230952Y-88638095D01*
X200230952Y-88542857D01*
X200278571Y-88447619D01*
X200326190Y-88400000D01*
X200421428Y-88352381D01*
X200659524Y-88352381D01*
X200802381Y-88400000D01*
X201802381Y-89257143D02*
X201754762Y-89304762D01*
X201611905Y-89352381D01*
X201516667Y-89352381D01*
X201373809Y-89304762D01*
X201278571Y-89209524D01*
X201230952Y-89114286D01*
X201183333Y-88923810D01*
X201183333Y-88780952D01*
X201230952Y-88590476D01*
X201278571Y-88495238D01*
X201373809Y-88400000D01*
X201516667Y-88352381D01*
X201611905Y-88352381D01*
X201754762Y-88400000D01*
X201802381Y-88447619D01*
X202707143Y-89352381D02*
X202230952Y-89352381D01*
X202230952Y-88352381D01*
X203040476Y-89352381D02*
X203040476Y-88352381D01*
X203611905Y-89352381D02*
X203183333Y-88780952D01*
X203611905Y-88352381D02*
X203040476Y-88923810D01*
X197040476Y-86764762D02*
X197183333Y-86812381D01*
X197421429Y-86812381D01*
X197516667Y-86764762D01*
X197564286Y-86717143D01*
X197611905Y-86621905D01*
X197611905Y-86526667D01*
X197564286Y-86431429D01*
X197516667Y-86383810D01*
X197421429Y-86336190D01*
X197230952Y-86288571D01*
X197135714Y-86240952D01*
X197088095Y-86193333D01*
X197040476Y-86098095D01*
X197040476Y-86002857D01*
X197088095Y-85907619D01*
X197135714Y-85860000D01*
X197230952Y-85812381D01*
X197469048Y-85812381D01*
X197611905Y-85860000D01*
X198040476Y-86812381D02*
X198040476Y-85812381D01*
X198421429Y-85812381D01*
X198516667Y-85860000D01*
X198564286Y-85907619D01*
X198611905Y-86002857D01*
X198611905Y-86145714D01*
X198564286Y-86240952D01*
X198516667Y-86288571D01*
X198421429Y-86336190D01*
X198040476Y-86336190D01*
X199040476Y-86812381D02*
X199040476Y-85812381D01*
X199278571Y-86907619D02*
X200040476Y-86907619D01*
X200278571Y-86812381D02*
X200278571Y-85812381D01*
X200516666Y-85812381D01*
X200659524Y-85860000D01*
X200754762Y-85955238D01*
X200802381Y-86050476D01*
X200850000Y-86240952D01*
X200850000Y-86383810D01*
X200802381Y-86574286D01*
X200754762Y-86669524D01*
X200659524Y-86764762D01*
X200516666Y-86812381D01*
X200278571Y-86812381D01*
X201469047Y-85812381D02*
X201659524Y-85812381D01*
X201754762Y-85860000D01*
X201850000Y-85955238D01*
X201897619Y-86145714D01*
X201897619Y-86479048D01*
X201850000Y-86669524D01*
X201754762Y-86764762D01*
X201659524Y-86812381D01*
X201469047Y-86812381D01*
X201373809Y-86764762D01*
X201278571Y-86669524D01*
X201230952Y-86479048D01*
X201230952Y-86145714D01*
X201278571Y-85955238D01*
X201373809Y-85860000D01*
X201469047Y-85812381D01*
X202326190Y-85812381D02*
X202326190Y-86621905D01*
X202373809Y-86717143D01*
X202421428Y-86764762D01*
X202516666Y-86812381D01*
X202707143Y-86812381D01*
X202802381Y-86764762D01*
X202850000Y-86717143D01*
X202897619Y-86621905D01*
X202897619Y-85812381D01*
X203230952Y-85812381D02*
X203802381Y-85812381D01*
X203516666Y-86812381D02*
X203516666Y-85812381D01*
X197136190Y-83748571D02*
X197469524Y-83748571D01*
X197612381Y-84272381D02*
X197136190Y-84272381D01*
X197136190Y-83272381D01*
X197612381Y-83272381D01*
X198612381Y-84177143D02*
X198564762Y-84224762D01*
X198421905Y-84272381D01*
X198326667Y-84272381D01*
X198183809Y-84224762D01*
X198088571Y-84129524D01*
X198040952Y-84034286D01*
X197993333Y-83843810D01*
X197993333Y-83700952D01*
X198040952Y-83510476D01*
X198088571Y-83415238D01*
X198183809Y-83320000D01*
X198326667Y-83272381D01*
X198421905Y-83272381D01*
X198564762Y-83320000D01*
X198612381Y-83367619D01*
X199564762Y-83320000D02*
X199469524Y-83272381D01*
X199326667Y-83272381D01*
X199183809Y-83320000D01*
X199088571Y-83415238D01*
X199040952Y-83510476D01*
X198993333Y-83700952D01*
X198993333Y-83843810D01*
X199040952Y-84034286D01*
X199088571Y-84129524D01*
X199183809Y-84224762D01*
X199326667Y-84272381D01*
X199421905Y-84272381D01*
X199564762Y-84224762D01*
X199612381Y-84177143D01*
X199612381Y-83843810D01*
X199421905Y-83843810D01*
X199802857Y-84367619D02*
X200564762Y-84367619D01*
X200802857Y-84272381D02*
X200802857Y-83272381D01*
X201040952Y-83272381D01*
X201183810Y-83320000D01*
X201279048Y-83415238D01*
X201326667Y-83510476D01*
X201374286Y-83700952D01*
X201374286Y-83843810D01*
X201326667Y-84034286D01*
X201279048Y-84129524D01*
X201183810Y-84224762D01*
X201040952Y-84272381D01*
X200802857Y-84272381D01*
X202374286Y-84272381D02*
X202040952Y-83796190D01*
X201802857Y-84272381D02*
X201802857Y-83272381D01*
X202183810Y-83272381D01*
X202279048Y-83320000D01*
X202326667Y-83367619D01*
X202374286Y-83462857D01*
X202374286Y-83605714D01*
X202326667Y-83700952D01*
X202279048Y-83748571D01*
X202183810Y-83796190D01*
X201802857Y-83796190D01*
X202802857Y-84272381D02*
X202802857Y-83272381D01*
X203040952Y-83272381D01*
X203183810Y-83320000D01*
X203279048Y-83415238D01*
X203326667Y-83510476D01*
X203374286Y-83700952D01*
X203374286Y-83843810D01*
X203326667Y-84034286D01*
X203279048Y-84129524D01*
X203183810Y-84224762D01*
X203040952Y-84272381D01*
X202802857Y-84272381D01*
X203993333Y-83796190D02*
X203993333Y-84272381D01*
X203660000Y-83272381D02*
X203993333Y-83796190D01*
X204326667Y-83272381D01*
X197659524Y-81637143D02*
X197611905Y-81684762D01*
X197469048Y-81732381D01*
X197373810Y-81732381D01*
X197230952Y-81684762D01*
X197135714Y-81589524D01*
X197088095Y-81494286D01*
X197040476Y-81303810D01*
X197040476Y-81160952D01*
X197088095Y-80970476D01*
X197135714Y-80875238D01*
X197230952Y-80780000D01*
X197373810Y-80732381D01*
X197469048Y-80732381D01*
X197611905Y-80780000D01*
X197659524Y-80827619D01*
X198564286Y-81732381D02*
X198088095Y-81732381D01*
X198088095Y-80732381D01*
X198897619Y-81732381D02*
X198897619Y-80732381D01*
X199469048Y-81732381D02*
X199040476Y-81160952D01*
X199469048Y-80732381D02*
X198897619Y-81303810D01*
X199659524Y-81827619D02*
X200421429Y-81827619D01*
X200611905Y-81684762D02*
X200754762Y-81732381D01*
X200992858Y-81732381D01*
X201088096Y-81684762D01*
X201135715Y-81637143D01*
X201183334Y-81541905D01*
X201183334Y-81446667D01*
X201135715Y-81351429D01*
X201088096Y-81303810D01*
X200992858Y-81256190D01*
X200802381Y-81208571D01*
X200707143Y-81160952D01*
X200659524Y-81113333D01*
X200611905Y-81018095D01*
X200611905Y-80922857D01*
X200659524Y-80827619D01*
X200707143Y-80780000D01*
X200802381Y-80732381D01*
X201040477Y-80732381D01*
X201183334Y-80780000D01*
X201611905Y-81208571D02*
X201945239Y-81208571D01*
X202088096Y-81732381D02*
X201611905Y-81732381D01*
X201611905Y-80732381D01*
X202088096Y-80732381D01*
X202992858Y-81732381D02*
X202516667Y-81732381D01*
X202516667Y-80732381D01*
X197611905Y-78240000D02*
X197516667Y-78192381D01*
X197373810Y-78192381D01*
X197230952Y-78240000D01*
X197135714Y-78335238D01*
X197088095Y-78430476D01*
X197040476Y-78620952D01*
X197040476Y-78763810D01*
X197088095Y-78954286D01*
X197135714Y-79049524D01*
X197230952Y-79144762D01*
X197373810Y-79192381D01*
X197469048Y-79192381D01*
X197611905Y-79144762D01*
X197659524Y-79097143D01*
X197659524Y-78763810D01*
X197469048Y-78763810D01*
X198088095Y-79192381D02*
X198088095Y-78192381D01*
X198659524Y-79192381D01*
X198659524Y-78192381D01*
X199135714Y-79192381D02*
X199135714Y-78192381D01*
X199373809Y-78192381D01*
X199516667Y-78240000D01*
X199611905Y-78335238D01*
X199659524Y-78430476D01*
X199707143Y-78620952D01*
X199707143Y-78763810D01*
X199659524Y-78954286D01*
X199611905Y-79049524D01*
X199516667Y-79144762D01*
X199373809Y-79192381D01*
X199135714Y-79192381D01*
X196945238Y-75652381D02*
X197278571Y-76652381D01*
X197611905Y-75652381D01*
X198373810Y-76604762D02*
X198278572Y-76652381D01*
X198088095Y-76652381D01*
X197992857Y-76604762D01*
X197945238Y-76557143D01*
X197897619Y-76461905D01*
X197897619Y-76176190D01*
X197945238Y-76080952D01*
X197992857Y-76033333D01*
X198088095Y-75985714D01*
X198278572Y-75985714D01*
X198373810Y-76033333D01*
X199230953Y-76604762D02*
X199135715Y-76652381D01*
X198945238Y-76652381D01*
X198850000Y-76604762D01*
X198802381Y-76557143D01*
X198754762Y-76461905D01*
X198754762Y-76176190D01*
X198802381Y-76080952D01*
X198850000Y-76033333D01*
X198945238Y-75985714D01*
X199135715Y-75985714D01*
X199230953Y-76033333D01*
D12*
X125750000Y-44700000D02*
X125750000Y-41700000D01*
X128250000Y-41700000D02*
X128250000Y-44700000D01*
X119400000Y-44700000D02*
X119400000Y-41700000D01*
X121900000Y-41700000D02*
X121900000Y-44700000D01*
X160000000Y-39120000D02*
X160000000Y-42120000D01*
X157500000Y-42120000D02*
X157500000Y-39120000D01*
X165080000Y-39120000D02*
X165080000Y-42120000D01*
X162580000Y-42120000D02*
X162580000Y-39120000D01*
X119400000Y-58670000D02*
X119400000Y-55670000D01*
X121900000Y-55670000D02*
X121900000Y-58670000D01*
X125750000Y-58670000D02*
X125750000Y-55670000D01*
X128250000Y-55670000D02*
X128250000Y-58670000D01*
X158730000Y-50550000D02*
X158730000Y-53550000D01*
X156230000Y-53550000D02*
X156230000Y-50550000D01*
X163810000Y-50550000D02*
X163810000Y-53550000D01*
X161310000Y-53550000D02*
X161310000Y-50550000D01*
X175240000Y-55630000D02*
X175240000Y-58630000D01*
X172740000Y-58630000D02*
X172740000Y-55630000D01*
X147340000Y-73910000D02*
X147340000Y-70910000D01*
X149840000Y-70910000D02*
X149840000Y-73910000D01*
X151150000Y-73910000D02*
X151150000Y-70910000D01*
X153650000Y-70910000D02*
X153650000Y-73910000D01*
X160000000Y-105160000D02*
X160000000Y-108160000D01*
X157500000Y-108160000D02*
X157500000Y-105160000D01*
X154920000Y-105160000D02*
X154920000Y-108160000D01*
X152420000Y-108160000D02*
X152420000Y-105160000D01*
X149840000Y-105160000D02*
X149840000Y-108160000D01*
X147340000Y-108160000D02*
X147340000Y-105160000D01*
X140950000Y-105160000D02*
X140950000Y-108160000D01*
X138450000Y-108160000D02*
X138450000Y-105160000D01*
X144760000Y-105160000D02*
X144760000Y-108160000D01*
X142260000Y-108160000D02*
X142260000Y-105160000D01*
X136140000Y-78720000D02*
X133140000Y-78720000D01*
X133140000Y-76220000D02*
X136140000Y-76220000D01*
X121900000Y-82300000D02*
X121900000Y-85300000D01*
X119400000Y-85300000D02*
X119400000Y-82300000D01*
X118090000Y-65790000D02*
X118090000Y-68790000D01*
X115590000Y-68790000D02*
X115590000Y-65790000D01*
X107950000Y-79629000D02*
X110490000Y-79629000D01*
X110490000Y-77851000D02*
X107950000Y-77851000D01*
X110490000Y-77851000D02*
X110490000Y-79629000D01*
X107950000Y-79629000D02*
X107950000Y-77851000D01*
X107950000Y-92329000D02*
X110490000Y-92329000D01*
X110490000Y-90551000D02*
X107950000Y-90551000D01*
X110490000Y-90551000D02*
X110490000Y-92329000D01*
X107950000Y-92329000D02*
X107950000Y-90551000D01*
X121920000Y-36830000D02*
X127000000Y-36830000D01*
X127000000Y-36830000D02*
X127000000Y-39370000D01*
X127000000Y-39370000D02*
X121920000Y-39370000D01*
X121920000Y-39370000D02*
X121920000Y-36830000D01*
X121920000Y-49530000D02*
X127000000Y-49530000D01*
X127000000Y-49530000D02*
X127000000Y-52070000D01*
X127000000Y-52070000D02*
X121920000Y-52070000D01*
X121920000Y-52070000D02*
X121920000Y-49530000D01*
X167640000Y-49530000D02*
X172720000Y-49530000D01*
X172720000Y-49530000D02*
X172720000Y-52070000D01*
X172720000Y-52070000D02*
X167640000Y-52070000D01*
X167640000Y-52070000D02*
X167640000Y-49530000D01*
X193040000Y-77470000D02*
X193040000Y-115570000D01*
X193040000Y-115570000D02*
X195580000Y-115570000D01*
X195580000Y-115570000D02*
X195580000Y-77470000D01*
X195860000Y-74650000D02*
X195860000Y-76200000D01*
X195580000Y-77470000D02*
X193040000Y-77470000D01*
X192760000Y-76200000D02*
X192760000Y-74650000D01*
X192760000Y-74650000D02*
X195860000Y-74650000D01*
X153670000Y-40640000D02*
X153670000Y-45720000D01*
X153670000Y-45720000D02*
X151130000Y-45720000D01*
X151130000Y-45720000D02*
X151130000Y-40640000D01*
X151130000Y-40640000D02*
X153670000Y-40640000D01*
X147320000Y-48260000D02*
X142240000Y-48260000D01*
X142240000Y-48260000D02*
X142240000Y-45720000D01*
X142240000Y-45720000D02*
X147320000Y-45720000D01*
X147320000Y-45720000D02*
X147320000Y-48260000D01*
X153670000Y-52070000D02*
X153670000Y-57150000D01*
X153670000Y-57150000D02*
X151130000Y-57150000D01*
X151130000Y-57150000D02*
X151130000Y-52070000D01*
X151130000Y-52070000D02*
X153670000Y-52070000D01*
X151130000Y-63500000D02*
X146050000Y-63500000D01*
X146050000Y-63500000D02*
X146050000Y-60960000D01*
X146050000Y-60960000D02*
X151130000Y-60960000D01*
X151130000Y-60960000D02*
X151130000Y-63500000D01*
X181610000Y-107950000D02*
X181610000Y-113030000D01*
X181610000Y-113030000D02*
X179070000Y-113030000D01*
X179070000Y-113030000D02*
X179070000Y-107950000D01*
X179070000Y-107950000D02*
X181610000Y-107950000D01*
X189230000Y-107950000D02*
X189230000Y-113030000D01*
X189230000Y-113030000D02*
X186690000Y-113030000D01*
X186690000Y-113030000D02*
X186690000Y-107950000D01*
X186690000Y-107950000D02*
X189230000Y-107950000D01*
X134620000Y-106680000D02*
X134620000Y-111760000D01*
X134620000Y-111760000D02*
X132080000Y-111760000D01*
X132080000Y-111760000D02*
X132080000Y-106680000D01*
X132080000Y-106680000D02*
X134620000Y-106680000D01*
X137160000Y-74930000D02*
X132080000Y-74930000D01*
X132080000Y-74930000D02*
X132080000Y-72390000D01*
X132080000Y-72390000D02*
X137160000Y-72390000D01*
X137160000Y-72390000D02*
X137160000Y-74930000D01*
X123190000Y-101600000D02*
X128270000Y-101600000D01*
X128270000Y-101600000D02*
X128270000Y-104140000D01*
X128270000Y-104140000D02*
X123190000Y-104140000D01*
X123190000Y-104140000D02*
X123190000Y-101600000D01*
X113030000Y-62230000D02*
X113030000Y-67310000D01*
X113030000Y-67310000D02*
X110490000Y-67310000D01*
X110490000Y-67310000D02*
X110490000Y-62230000D01*
X110490000Y-62230000D02*
X113030000Y-62230000D01*
X123190000Y-76200000D02*
X118110000Y-76200000D01*
X118110000Y-76200000D02*
X118110000Y-73660000D01*
X118110000Y-73660000D02*
X123190000Y-73660000D01*
X123190000Y-73660000D02*
X123190000Y-76200000D01*
X134525000Y-86265000D02*
X134525000Y-87215000D01*
X144875000Y-86265000D02*
X144875000Y-87315000D01*
X144875000Y-96615000D02*
X144875000Y-95565000D01*
X134525000Y-96615000D02*
X134525000Y-95565000D01*
X134525000Y-86265000D02*
X135575000Y-86265000D01*
X134525000Y-96615000D02*
X135575000Y-96615000D01*
X144875000Y-96615000D02*
X143825000Y-96615000D01*
X144875000Y-86265000D02*
X143825000Y-86265000D01*
X134525000Y-87215000D02*
X133250000Y-87215000D01*
X139400000Y-38940000D02*
G75*
G03X139400000Y-38940000I-100000J0D01*
G01*
X139950000Y-39190000D02*
X139450000Y-39190000D01*
X139950000Y-42090000D02*
X139950000Y-39190000D01*
X139450000Y-42090000D02*
X139950000Y-42090000D01*
X139450000Y-39190000D02*
X139450000Y-42090000D01*
X139400000Y-50370000D02*
G75*
G03X139400000Y-50370000I-100000J0D01*
G01*
X139950000Y-50620000D02*
X139450000Y-50620000D01*
X139950000Y-53520000D02*
X139950000Y-50620000D01*
X139450000Y-53520000D02*
X139950000Y-53520000D01*
X139450000Y-50620000D02*
X139450000Y-53520000D01*
X127935000Y-71585000D02*
X127935000Y-71285000D01*
X127935000Y-71285000D02*
X128235000Y-71285000D01*
X127035000Y-69385000D02*
X127035000Y-71585000D01*
X127035000Y-71585000D02*
X128235000Y-71585000D01*
X128235000Y-71585000D02*
X128235000Y-69385000D01*
X128235000Y-69385000D02*
X127035000Y-69385000D01*
X108920000Y-82120000D02*
G75*
G03X108920000Y-82120000I-100000J0D01*
G01*
X109470000Y-82370000D02*
X108970000Y-82370000D01*
X109470000Y-85270000D02*
X109470000Y-82370000D01*
X108970000Y-85270000D02*
X109470000Y-85270000D01*
X108970000Y-82370000D02*
X108970000Y-85270000D01*
X108920000Y-94820000D02*
G75*
G03X108920000Y-94820000I-100000J0D01*
G01*
X109470000Y-95070000D02*
X108970000Y-95070000D01*
X109470000Y-97970000D02*
X109470000Y-95070000D01*
X108970000Y-97970000D02*
X109470000Y-97970000D01*
X108970000Y-95070000D02*
X108970000Y-97970000D01*
X151150000Y-78990000D02*
X151150000Y-75990000D01*
X153650000Y-75990000D02*
X153650000Y-78990000D01*
X135870000Y-100080000D02*
X135870000Y-103080000D01*
X133370000Y-103080000D02*
X133370000Y-100080000D01*
X156230000Y-78990000D02*
X156230000Y-75990000D01*
X158730000Y-75990000D02*
X158730000Y-78990000D01*
X143530000Y-73910000D02*
X143530000Y-70910000D01*
X146030000Y-70910000D02*
X146030000Y-73910000D01*
X152380000Y-83570000D02*
X152380000Y-86570000D01*
X149880000Y-86570000D02*
X149880000Y-83570000D01*
X140990000Y-73910000D02*
X140990000Y-70910000D01*
X143490000Y-70910000D02*
X143490000Y-73910000D01*
X156190000Y-83570000D02*
X156190000Y-86570000D01*
X153690000Y-86570000D02*
X153690000Y-83570000D01*
X138410000Y-102620000D02*
X138410000Y-105620000D01*
X135910000Y-105620000D02*
X135910000Y-102620000D01*
X96520000Y-80010000D02*
X96520000Y-118110000D01*
X96520000Y-118110000D02*
X99060000Y-118110000D01*
X99060000Y-118110000D02*
X99060000Y-80010000D01*
X99340000Y-77190000D02*
X99340000Y-78740000D01*
X99060000Y-80010000D02*
X96520000Y-80010000D01*
X96240000Y-78740000D02*
X96240000Y-77190000D01*
X96240000Y-77190000D02*
X99340000Y-77190000D01*
X124857143Y-43366666D02*
X124904762Y-43414285D01*
X124952381Y-43557142D01*
X124952381Y-43652380D01*
X124904762Y-43795238D01*
X124809524Y-43890476D01*
X124714286Y-43938095D01*
X124523810Y-43985714D01*
X124380952Y-43985714D01*
X124190476Y-43938095D01*
X124095238Y-43890476D01*
X124000000Y-43795238D01*
X123952381Y-43652380D01*
X123952381Y-43557142D01*
X124000000Y-43414285D01*
X124047619Y-43366666D01*
X124952381Y-42414285D02*
X124952381Y-42985714D01*
X124952381Y-42700000D02*
X123952381Y-42700000D01*
X124095238Y-42795238D01*
X124190476Y-42890476D01*
X124238095Y-42985714D01*
X118507143Y-43366666D02*
X118554762Y-43414285D01*
X118602381Y-43557142D01*
X118602381Y-43652380D01*
X118554762Y-43795238D01*
X118459524Y-43890476D01*
X118364286Y-43938095D01*
X118173810Y-43985714D01*
X118030952Y-43985714D01*
X117840476Y-43938095D01*
X117745238Y-43890476D01*
X117650000Y-43795238D01*
X117602381Y-43652380D01*
X117602381Y-43557142D01*
X117650000Y-43414285D01*
X117697619Y-43366666D01*
X117697619Y-42985714D02*
X117650000Y-42938095D01*
X117602381Y-42842857D01*
X117602381Y-42604761D01*
X117650000Y-42509523D01*
X117697619Y-42461904D01*
X117792857Y-42414285D01*
X117888095Y-42414285D01*
X118030952Y-42461904D01*
X118602381Y-43033333D01*
X118602381Y-42414285D01*
X161607143Y-40786666D02*
X161654762Y-40834285D01*
X161702381Y-40977142D01*
X161702381Y-41072380D01*
X161654762Y-41215238D01*
X161559524Y-41310476D01*
X161464286Y-41358095D01*
X161273810Y-41405714D01*
X161130952Y-41405714D01*
X160940476Y-41358095D01*
X160845238Y-41310476D01*
X160750000Y-41215238D01*
X160702381Y-41072380D01*
X160702381Y-40977142D01*
X160750000Y-40834285D01*
X160797619Y-40786666D01*
X160702381Y-40453333D02*
X160702381Y-39834285D01*
X161083333Y-40167619D01*
X161083333Y-40024761D01*
X161130952Y-39929523D01*
X161178571Y-39881904D01*
X161273810Y-39834285D01*
X161511905Y-39834285D01*
X161607143Y-39881904D01*
X161654762Y-39929523D01*
X161702381Y-40024761D01*
X161702381Y-40310476D01*
X161654762Y-40405714D01*
X161607143Y-40453333D01*
X166687143Y-40786666D02*
X166734762Y-40834285D01*
X166782381Y-40977142D01*
X166782381Y-41072380D01*
X166734762Y-41215238D01*
X166639524Y-41310476D01*
X166544286Y-41358095D01*
X166353810Y-41405714D01*
X166210952Y-41405714D01*
X166020476Y-41358095D01*
X165925238Y-41310476D01*
X165830000Y-41215238D01*
X165782381Y-41072380D01*
X165782381Y-40977142D01*
X165830000Y-40834285D01*
X165877619Y-40786666D01*
X166115714Y-39929523D02*
X166782381Y-39929523D01*
X165734762Y-40167619D02*
X166449048Y-40405714D01*
X166449048Y-39786666D01*
X118507143Y-57336666D02*
X118554762Y-57384285D01*
X118602381Y-57527142D01*
X118602381Y-57622380D01*
X118554762Y-57765238D01*
X118459524Y-57860476D01*
X118364286Y-57908095D01*
X118173810Y-57955714D01*
X118030952Y-57955714D01*
X117840476Y-57908095D01*
X117745238Y-57860476D01*
X117650000Y-57765238D01*
X117602381Y-57622380D01*
X117602381Y-57527142D01*
X117650000Y-57384285D01*
X117697619Y-57336666D01*
X117602381Y-56431904D02*
X117602381Y-56908095D01*
X118078571Y-56955714D01*
X118030952Y-56908095D01*
X117983333Y-56812857D01*
X117983333Y-56574761D01*
X118030952Y-56479523D01*
X118078571Y-56431904D01*
X118173810Y-56384285D01*
X118411905Y-56384285D01*
X118507143Y-56431904D01*
X118554762Y-56479523D01*
X118602381Y-56574761D01*
X118602381Y-56812857D01*
X118554762Y-56908095D01*
X118507143Y-56955714D01*
X124857143Y-57336666D02*
X124904762Y-57384285D01*
X124952381Y-57527142D01*
X124952381Y-57622380D01*
X124904762Y-57765238D01*
X124809524Y-57860476D01*
X124714286Y-57908095D01*
X124523810Y-57955714D01*
X124380952Y-57955714D01*
X124190476Y-57908095D01*
X124095238Y-57860476D01*
X124000000Y-57765238D01*
X123952381Y-57622380D01*
X123952381Y-57527142D01*
X124000000Y-57384285D01*
X124047619Y-57336666D01*
X123952381Y-56479523D02*
X123952381Y-56670000D01*
X124000000Y-56765238D01*
X124047619Y-56812857D01*
X124190476Y-56908095D01*
X124380952Y-56955714D01*
X124761905Y-56955714D01*
X124857143Y-56908095D01*
X124904762Y-56860476D01*
X124952381Y-56765238D01*
X124952381Y-56574761D01*
X124904762Y-56479523D01*
X124857143Y-56431904D01*
X124761905Y-56384285D01*
X124523810Y-56384285D01*
X124428571Y-56431904D01*
X124380952Y-56479523D01*
X124333333Y-56574761D01*
X124333333Y-56765238D01*
X124380952Y-56860476D01*
X124428571Y-56908095D01*
X124523810Y-56955714D01*
X157837143Y-56046666D02*
X157884762Y-56094285D01*
X157932381Y-56237142D01*
X157932381Y-56332380D01*
X157884762Y-56475238D01*
X157789524Y-56570476D01*
X157694286Y-56618095D01*
X157503810Y-56665714D01*
X157360952Y-56665714D01*
X157170476Y-56618095D01*
X157075238Y-56570476D01*
X156980000Y-56475238D01*
X156932381Y-56332380D01*
X156932381Y-56237142D01*
X156980000Y-56094285D01*
X157027619Y-56046666D01*
X156932381Y-55713333D02*
X156932381Y-55046666D01*
X157932381Y-55475238D01*
X162917143Y-56046666D02*
X162964762Y-56094285D01*
X163012381Y-56237142D01*
X163012381Y-56332380D01*
X162964762Y-56475238D01*
X162869524Y-56570476D01*
X162774286Y-56618095D01*
X162583810Y-56665714D01*
X162440952Y-56665714D01*
X162250476Y-56618095D01*
X162155238Y-56570476D01*
X162060000Y-56475238D01*
X162012381Y-56332380D01*
X162012381Y-56237142D01*
X162060000Y-56094285D01*
X162107619Y-56046666D01*
X162440952Y-55475238D02*
X162393333Y-55570476D01*
X162345714Y-55618095D01*
X162250476Y-55665714D01*
X162202857Y-55665714D01*
X162107619Y-55618095D01*
X162060000Y-55570476D01*
X162012381Y-55475238D01*
X162012381Y-55284761D01*
X162060000Y-55189523D01*
X162107619Y-55141904D01*
X162202857Y-55094285D01*
X162250476Y-55094285D01*
X162345714Y-55141904D01*
X162393333Y-55189523D01*
X162440952Y-55284761D01*
X162440952Y-55475238D01*
X162488571Y-55570476D01*
X162536190Y-55618095D01*
X162631429Y-55665714D01*
X162821905Y-55665714D01*
X162917143Y-55618095D01*
X162964762Y-55570476D01*
X163012381Y-55475238D01*
X163012381Y-55284761D01*
X162964762Y-55189523D01*
X162917143Y-55141904D01*
X162821905Y-55094285D01*
X162631429Y-55094285D01*
X162536190Y-55141904D01*
X162488571Y-55189523D01*
X162440952Y-55284761D01*
X176847143Y-57296666D02*
X176894762Y-57344285D01*
X176942381Y-57487142D01*
X176942381Y-57582380D01*
X176894762Y-57725238D01*
X176799524Y-57820476D01*
X176704286Y-57868095D01*
X176513810Y-57915714D01*
X176370952Y-57915714D01*
X176180476Y-57868095D01*
X176085238Y-57820476D01*
X175990000Y-57725238D01*
X175942381Y-57582380D01*
X175942381Y-57487142D01*
X175990000Y-57344285D01*
X176037619Y-57296666D01*
X176942381Y-56820476D02*
X176942381Y-56630000D01*
X176894762Y-56534761D01*
X176847143Y-56487142D01*
X176704286Y-56391904D01*
X176513810Y-56344285D01*
X176132857Y-56344285D01*
X176037619Y-56391904D01*
X175990000Y-56439523D01*
X175942381Y-56534761D01*
X175942381Y-56725238D01*
X175990000Y-56820476D01*
X176037619Y-56868095D01*
X176132857Y-56915714D01*
X176370952Y-56915714D01*
X176466190Y-56868095D01*
X176513810Y-56820476D01*
X176561429Y-56725238D01*
X176561429Y-56534761D01*
X176513810Y-56439523D01*
X176466190Y-56391904D01*
X176370952Y-56344285D01*
X148947143Y-69222857D02*
X148994762Y-69270476D01*
X149042381Y-69413333D01*
X149042381Y-69508571D01*
X148994762Y-69651429D01*
X148899524Y-69746667D01*
X148804286Y-69794286D01*
X148613810Y-69841905D01*
X148470952Y-69841905D01*
X148280476Y-69794286D01*
X148185238Y-69746667D01*
X148090000Y-69651429D01*
X148042381Y-69508571D01*
X148042381Y-69413333D01*
X148090000Y-69270476D01*
X148137619Y-69222857D01*
X149042381Y-68270476D02*
X149042381Y-68841905D01*
X149042381Y-68556191D02*
X148042381Y-68556191D01*
X148185238Y-68651429D01*
X148280476Y-68746667D01*
X148328095Y-68841905D01*
X148042381Y-67651429D02*
X148042381Y-67556190D01*
X148090000Y-67460952D01*
X148137619Y-67413333D01*
X148232857Y-67365714D01*
X148423333Y-67318095D01*
X148661429Y-67318095D01*
X148851905Y-67365714D01*
X148947143Y-67413333D01*
X148994762Y-67460952D01*
X149042381Y-67556190D01*
X149042381Y-67651429D01*
X148994762Y-67746667D01*
X148947143Y-67794286D01*
X148851905Y-67841905D01*
X148661429Y-67889524D01*
X148423333Y-67889524D01*
X148232857Y-67841905D01*
X148137619Y-67794286D01*
X148090000Y-67746667D01*
X148042381Y-67651429D01*
X152757143Y-69222857D02*
X152804762Y-69270476D01*
X152852381Y-69413333D01*
X152852381Y-69508571D01*
X152804762Y-69651429D01*
X152709524Y-69746667D01*
X152614286Y-69794286D01*
X152423810Y-69841905D01*
X152280952Y-69841905D01*
X152090476Y-69794286D01*
X151995238Y-69746667D01*
X151900000Y-69651429D01*
X151852381Y-69508571D01*
X151852381Y-69413333D01*
X151900000Y-69270476D01*
X151947619Y-69222857D01*
X152852381Y-68270476D02*
X152852381Y-68841905D01*
X152852381Y-68556191D02*
X151852381Y-68556191D01*
X151995238Y-68651429D01*
X152090476Y-68746667D01*
X152138095Y-68841905D01*
X152852381Y-67318095D02*
X152852381Y-67889524D01*
X152852381Y-67603810D02*
X151852381Y-67603810D01*
X151995238Y-67699048D01*
X152090476Y-67794286D01*
X152138095Y-67889524D01*
X161607143Y-107302857D02*
X161654762Y-107350476D01*
X161702381Y-107493333D01*
X161702381Y-107588571D01*
X161654762Y-107731429D01*
X161559524Y-107826667D01*
X161464286Y-107874286D01*
X161273810Y-107921905D01*
X161130952Y-107921905D01*
X160940476Y-107874286D01*
X160845238Y-107826667D01*
X160750000Y-107731429D01*
X160702381Y-107588571D01*
X160702381Y-107493333D01*
X160750000Y-107350476D01*
X160797619Y-107302857D01*
X161702381Y-106350476D02*
X161702381Y-106921905D01*
X161702381Y-106636191D02*
X160702381Y-106636191D01*
X160845238Y-106731429D01*
X160940476Y-106826667D01*
X160988095Y-106921905D01*
X160797619Y-105969524D02*
X160750000Y-105921905D01*
X160702381Y-105826667D01*
X160702381Y-105588571D01*
X160750000Y-105493333D01*
X160797619Y-105445714D01*
X160892857Y-105398095D01*
X160988095Y-105398095D01*
X161130952Y-105445714D01*
X161702381Y-106017143D01*
X161702381Y-105398095D01*
X156527143Y-107302857D02*
X156574762Y-107350476D01*
X156622381Y-107493333D01*
X156622381Y-107588571D01*
X156574762Y-107731429D01*
X156479524Y-107826667D01*
X156384286Y-107874286D01*
X156193810Y-107921905D01*
X156050952Y-107921905D01*
X155860476Y-107874286D01*
X155765238Y-107826667D01*
X155670000Y-107731429D01*
X155622381Y-107588571D01*
X155622381Y-107493333D01*
X155670000Y-107350476D01*
X155717619Y-107302857D01*
X156622381Y-106350476D02*
X156622381Y-106921905D01*
X156622381Y-106636191D02*
X155622381Y-106636191D01*
X155765238Y-106731429D01*
X155860476Y-106826667D01*
X155908095Y-106921905D01*
X155622381Y-106017143D02*
X155622381Y-105398095D01*
X156003333Y-105731429D01*
X156003333Y-105588571D01*
X156050952Y-105493333D01*
X156098571Y-105445714D01*
X156193810Y-105398095D01*
X156431905Y-105398095D01*
X156527143Y-105445714D01*
X156574762Y-105493333D01*
X156622381Y-105588571D01*
X156622381Y-105874286D01*
X156574762Y-105969524D01*
X156527143Y-106017143D01*
X151447143Y-107302857D02*
X151494762Y-107350476D01*
X151542381Y-107493333D01*
X151542381Y-107588571D01*
X151494762Y-107731429D01*
X151399524Y-107826667D01*
X151304286Y-107874286D01*
X151113810Y-107921905D01*
X150970952Y-107921905D01*
X150780476Y-107874286D01*
X150685238Y-107826667D01*
X150590000Y-107731429D01*
X150542381Y-107588571D01*
X150542381Y-107493333D01*
X150590000Y-107350476D01*
X150637619Y-107302857D01*
X151542381Y-106350476D02*
X151542381Y-106921905D01*
X151542381Y-106636191D02*
X150542381Y-106636191D01*
X150685238Y-106731429D01*
X150780476Y-106826667D01*
X150828095Y-106921905D01*
X150875714Y-105493333D02*
X151542381Y-105493333D01*
X150494762Y-105731429D02*
X151209048Y-105969524D01*
X151209048Y-105350476D01*
X140057143Y-111132857D02*
X140104762Y-111180476D01*
X140152381Y-111323333D01*
X140152381Y-111418571D01*
X140104762Y-111561429D01*
X140009524Y-111656667D01*
X139914286Y-111704286D01*
X139723810Y-111751905D01*
X139580952Y-111751905D01*
X139390476Y-111704286D01*
X139295238Y-111656667D01*
X139200000Y-111561429D01*
X139152381Y-111418571D01*
X139152381Y-111323333D01*
X139200000Y-111180476D01*
X139247619Y-111132857D01*
X140152381Y-110180476D02*
X140152381Y-110751905D01*
X140152381Y-110466191D02*
X139152381Y-110466191D01*
X139295238Y-110561429D01*
X139390476Y-110656667D01*
X139438095Y-110751905D01*
X139152381Y-109275714D02*
X139152381Y-109751905D01*
X139628571Y-109799524D01*
X139580952Y-109751905D01*
X139533333Y-109656667D01*
X139533333Y-109418571D01*
X139580952Y-109323333D01*
X139628571Y-109275714D01*
X139723810Y-109228095D01*
X139961905Y-109228095D01*
X140057143Y-109275714D01*
X140104762Y-109323333D01*
X140152381Y-109418571D01*
X140152381Y-109656667D01*
X140104762Y-109751905D01*
X140057143Y-109799524D01*
X146407143Y-107322857D02*
X146454762Y-107370476D01*
X146502381Y-107513333D01*
X146502381Y-107608571D01*
X146454762Y-107751429D01*
X146359524Y-107846667D01*
X146264286Y-107894286D01*
X146073810Y-107941905D01*
X145930952Y-107941905D01*
X145740476Y-107894286D01*
X145645238Y-107846667D01*
X145550000Y-107751429D01*
X145502381Y-107608571D01*
X145502381Y-107513333D01*
X145550000Y-107370476D01*
X145597619Y-107322857D01*
X146502381Y-106370476D02*
X146502381Y-106941905D01*
X146502381Y-106656191D02*
X145502381Y-106656191D01*
X145645238Y-106751429D01*
X145740476Y-106846667D01*
X145788095Y-106941905D01*
X145502381Y-105513333D02*
X145502381Y-105703810D01*
X145550000Y-105799048D01*
X145597619Y-105846667D01*
X145740476Y-105941905D01*
X145930952Y-105989524D01*
X146311905Y-105989524D01*
X146407143Y-105941905D01*
X146454762Y-105894286D01*
X146502381Y-105799048D01*
X146502381Y-105608571D01*
X146454762Y-105513333D01*
X146407143Y-105465714D01*
X146311905Y-105418095D01*
X146073810Y-105418095D01*
X145978571Y-105465714D01*
X145930952Y-105513333D01*
X145883333Y-105608571D01*
X145883333Y-105799048D01*
X145930952Y-105894286D01*
X145978571Y-105941905D01*
X146073810Y-105989524D01*
X137787143Y-77827143D02*
X137739524Y-77874762D01*
X137596667Y-77922381D01*
X137501429Y-77922381D01*
X137358571Y-77874762D01*
X137263333Y-77779524D01*
X137215714Y-77684286D01*
X137168095Y-77493810D01*
X137168095Y-77350952D01*
X137215714Y-77160476D01*
X137263333Y-77065238D01*
X137358571Y-76970000D01*
X137501429Y-76922381D01*
X137596667Y-76922381D01*
X137739524Y-76970000D01*
X137787143Y-77017619D01*
X138739524Y-77922381D02*
X138168095Y-77922381D01*
X138453809Y-77922381D02*
X138453809Y-76922381D01*
X138358571Y-77065238D01*
X138263333Y-77160476D01*
X138168095Y-77208095D01*
X139072857Y-76922381D02*
X139739524Y-76922381D01*
X139310952Y-77922381D01*
X123507143Y-84442857D02*
X123554762Y-84490476D01*
X123602381Y-84633333D01*
X123602381Y-84728571D01*
X123554762Y-84871429D01*
X123459524Y-84966667D01*
X123364286Y-85014286D01*
X123173810Y-85061905D01*
X123030952Y-85061905D01*
X122840476Y-85014286D01*
X122745238Y-84966667D01*
X122650000Y-84871429D01*
X122602381Y-84728571D01*
X122602381Y-84633333D01*
X122650000Y-84490476D01*
X122697619Y-84442857D01*
X123602381Y-83490476D02*
X123602381Y-84061905D01*
X123602381Y-83776191D02*
X122602381Y-83776191D01*
X122745238Y-83871429D01*
X122840476Y-83966667D01*
X122888095Y-84061905D01*
X123030952Y-82919048D02*
X122983333Y-83014286D01*
X122935714Y-83061905D01*
X122840476Y-83109524D01*
X122792857Y-83109524D01*
X122697619Y-83061905D01*
X122650000Y-83014286D01*
X122602381Y-82919048D01*
X122602381Y-82728571D01*
X122650000Y-82633333D01*
X122697619Y-82585714D01*
X122792857Y-82538095D01*
X122840476Y-82538095D01*
X122935714Y-82585714D01*
X122983333Y-82633333D01*
X123030952Y-82728571D01*
X123030952Y-82919048D01*
X123078571Y-83014286D01*
X123126190Y-83061905D01*
X123221429Y-83109524D01*
X123411905Y-83109524D01*
X123507143Y-83061905D01*
X123554762Y-83014286D01*
X123602381Y-82919048D01*
X123602381Y-82728571D01*
X123554762Y-82633333D01*
X123507143Y-82585714D01*
X123411905Y-82538095D01*
X123221429Y-82538095D01*
X123126190Y-82585714D01*
X123078571Y-82633333D01*
X123030952Y-82728571D01*
X119697143Y-67932857D02*
X119744762Y-67980476D01*
X119792381Y-68123333D01*
X119792381Y-68218571D01*
X119744762Y-68361429D01*
X119649524Y-68456667D01*
X119554286Y-68504286D01*
X119363810Y-68551905D01*
X119220952Y-68551905D01*
X119030476Y-68504286D01*
X118935238Y-68456667D01*
X118840000Y-68361429D01*
X118792381Y-68218571D01*
X118792381Y-68123333D01*
X118840000Y-67980476D01*
X118887619Y-67932857D01*
X119792381Y-66980476D02*
X119792381Y-67551905D01*
X119792381Y-67266191D02*
X118792381Y-67266191D01*
X118935238Y-67361429D01*
X119030476Y-67456667D01*
X119078095Y-67551905D01*
X119792381Y-66504286D02*
X119792381Y-66313810D01*
X119744762Y-66218571D01*
X119697143Y-66170952D01*
X119554286Y-66075714D01*
X119363810Y-66028095D01*
X118982857Y-66028095D01*
X118887619Y-66075714D01*
X118840000Y-66123333D01*
X118792381Y-66218571D01*
X118792381Y-66409048D01*
X118840000Y-66504286D01*
X118887619Y-66551905D01*
X118982857Y-66599524D01*
X119220952Y-66599524D01*
X119316190Y-66551905D01*
X119363810Y-66504286D01*
X119411429Y-66409048D01*
X119411429Y-66218571D01*
X119363810Y-66123333D01*
X119316190Y-66075714D01*
X119220952Y-66028095D01*
X108529524Y-76462000D02*
X108434286Y-76414381D01*
X108291429Y-76414381D01*
X108148571Y-76462000D01*
X108053333Y-76557238D01*
X108005714Y-76652476D01*
X107958095Y-76842952D01*
X107958095Y-76985810D01*
X108005714Y-77176286D01*
X108053333Y-77271524D01*
X108148571Y-77366762D01*
X108291429Y-77414381D01*
X108386667Y-77414381D01*
X108529524Y-77366762D01*
X108577143Y-77319143D01*
X108577143Y-76985810D01*
X108386667Y-76985810D01*
X108958095Y-77366762D02*
X109100952Y-77414381D01*
X109339048Y-77414381D01*
X109434286Y-77366762D01*
X109481905Y-77319143D01*
X109529524Y-77223905D01*
X109529524Y-77128667D01*
X109481905Y-77033429D01*
X109434286Y-76985810D01*
X109339048Y-76938190D01*
X109148571Y-76890571D01*
X109053333Y-76842952D01*
X109005714Y-76795333D01*
X108958095Y-76700095D01*
X108958095Y-76604857D01*
X109005714Y-76509619D01*
X109053333Y-76462000D01*
X109148571Y-76414381D01*
X109386667Y-76414381D01*
X109529524Y-76462000D01*
X110481905Y-77414381D02*
X109910476Y-77414381D01*
X110196190Y-77414381D02*
X110196190Y-76414381D01*
X110100952Y-76557238D01*
X110005714Y-76652476D01*
X109910476Y-76700095D01*
X108529524Y-89162000D02*
X108434286Y-89114381D01*
X108291429Y-89114381D01*
X108148571Y-89162000D01*
X108053333Y-89257238D01*
X108005714Y-89352476D01*
X107958095Y-89542952D01*
X107958095Y-89685810D01*
X108005714Y-89876286D01*
X108053333Y-89971524D01*
X108148571Y-90066762D01*
X108291429Y-90114381D01*
X108386667Y-90114381D01*
X108529524Y-90066762D01*
X108577143Y-90019143D01*
X108577143Y-89685810D01*
X108386667Y-89685810D01*
X108958095Y-90066762D02*
X109100952Y-90114381D01*
X109339048Y-90114381D01*
X109434286Y-90066762D01*
X109481905Y-90019143D01*
X109529524Y-89923905D01*
X109529524Y-89828667D01*
X109481905Y-89733429D01*
X109434286Y-89685810D01*
X109339048Y-89638190D01*
X109148571Y-89590571D01*
X109053333Y-89542952D01*
X109005714Y-89495333D01*
X108958095Y-89400095D01*
X108958095Y-89304857D01*
X109005714Y-89209619D01*
X109053333Y-89162000D01*
X109148571Y-89114381D01*
X109386667Y-89114381D01*
X109529524Y-89162000D01*
X109910476Y-89209619D02*
X109958095Y-89162000D01*
X110053333Y-89114381D01*
X110291429Y-89114381D01*
X110386667Y-89162000D01*
X110434286Y-89209619D01*
X110481905Y-89304857D01*
X110481905Y-89400095D01*
X110434286Y-89542952D01*
X109862857Y-90114381D01*
X110481905Y-90114381D01*
X124542254Y-35052261D02*
X124066063Y-35052261D01*
X124066063Y-34052261D01*
X125399397Y-35052261D02*
X124827968Y-35052261D01*
X125113682Y-35052261D02*
X125113682Y-34052261D01*
X125018444Y-34195118D01*
X124923206Y-34290356D01*
X124827968Y-34337975D01*
X124542254Y-47752261D02*
X124066063Y-47752261D01*
X124066063Y-46752261D01*
X124827968Y-46847499D02*
X124875587Y-46799880D01*
X124970825Y-46752261D01*
X125208921Y-46752261D01*
X125304159Y-46799880D01*
X125351778Y-46847499D01*
X125399397Y-46942737D01*
X125399397Y-47037975D01*
X125351778Y-47180832D01*
X124780349Y-47752261D01*
X125399397Y-47752261D01*
X170262254Y-47752261D02*
X169786063Y-47752261D01*
X169786063Y-46752261D01*
X170500349Y-46752261D02*
X171119397Y-46752261D01*
X170786063Y-47133213D01*
X170928921Y-47133213D01*
X171024159Y-47180832D01*
X171071778Y-47228451D01*
X171119397Y-47323690D01*
X171119397Y-47561785D01*
X171071778Y-47657023D01*
X171024159Y-47704642D01*
X170928921Y-47752261D01*
X170643206Y-47752261D01*
X170547968Y-47704642D01*
X170500349Y-47657023D01*
X193619524Y-72747143D02*
X193571905Y-72794762D01*
X193429048Y-72842381D01*
X193333810Y-72842381D01*
X193190952Y-72794762D01*
X193095714Y-72699524D01*
X193048095Y-72604286D01*
X193000476Y-72413810D01*
X193000476Y-72270952D01*
X193048095Y-72080476D01*
X193095714Y-71985238D01*
X193190952Y-71890000D01*
X193333810Y-71842381D01*
X193429048Y-71842381D01*
X193571905Y-71890000D01*
X193619524Y-71937619D01*
X194762381Y-71794762D02*
X193905238Y-73080476D01*
X195048095Y-72794762D02*
X195190952Y-72842381D01*
X195429048Y-72842381D01*
X195524286Y-72794762D01*
X195571905Y-72747143D01*
X195619524Y-72651905D01*
X195619524Y-72556667D01*
X195571905Y-72461429D01*
X195524286Y-72413810D01*
X195429048Y-72366190D01*
X195238571Y-72318571D01*
X195143333Y-72270952D01*
X195095714Y-72223333D01*
X195048095Y-72128095D01*
X195048095Y-72032857D01*
X195095714Y-71937619D01*
X195143333Y-71890000D01*
X195238571Y-71842381D01*
X195476667Y-71842381D01*
X195619524Y-71890000D01*
X152852381Y-43346666D02*
X152376190Y-43680000D01*
X152852381Y-43918095D02*
X151852381Y-43918095D01*
X151852381Y-43537142D01*
X151900000Y-43441904D01*
X151947619Y-43394285D01*
X152042857Y-43346666D01*
X152185714Y-43346666D01*
X152280952Y-43394285D01*
X152328571Y-43441904D01*
X152376190Y-43537142D01*
X152376190Y-43918095D01*
X152852381Y-42394285D02*
X152852381Y-42965714D01*
X152852381Y-42680000D02*
X151852381Y-42680000D01*
X151995238Y-42775238D01*
X152090476Y-42870476D01*
X152138095Y-42965714D01*
X144364414Y-50942501D02*
X144031080Y-50466310D01*
X143792985Y-50942501D02*
X143792985Y-49942501D01*
X144173938Y-49942501D01*
X144269176Y-49990120D01*
X144316795Y-50037739D01*
X144364414Y-50132977D01*
X144364414Y-50275834D01*
X144316795Y-50371072D01*
X144269176Y-50418691D01*
X144173938Y-50466310D01*
X143792985Y-50466310D01*
X144745366Y-50037739D02*
X144792985Y-49990120D01*
X144888223Y-49942501D01*
X145126319Y-49942501D01*
X145221557Y-49990120D01*
X145269176Y-50037739D01*
X145316795Y-50132977D01*
X145316795Y-50228215D01*
X145269176Y-50371072D01*
X144697747Y-50942501D01*
X145316795Y-50942501D01*
X152852381Y-54776666D02*
X152376190Y-55110000D01*
X152852381Y-55348095D02*
X151852381Y-55348095D01*
X151852381Y-54967142D01*
X151900000Y-54871904D01*
X151947619Y-54824285D01*
X152042857Y-54776666D01*
X152185714Y-54776666D01*
X152280952Y-54824285D01*
X152328571Y-54871904D01*
X152376190Y-54967142D01*
X152376190Y-55348095D01*
X151852381Y-54443333D02*
X151852381Y-53824285D01*
X152233333Y-54157619D01*
X152233333Y-54014761D01*
X152280952Y-53919523D01*
X152328571Y-53871904D01*
X152423810Y-53824285D01*
X152661905Y-53824285D01*
X152757143Y-53871904D01*
X152804762Y-53919523D01*
X152852381Y-54014761D01*
X152852381Y-54300476D01*
X152804762Y-54395714D01*
X152757143Y-54443333D01*
X148423334Y-62682381D02*
X148090000Y-62206190D01*
X147851905Y-62682381D02*
X147851905Y-61682381D01*
X148232858Y-61682381D01*
X148328096Y-61730000D01*
X148375715Y-61777619D01*
X148423334Y-61872857D01*
X148423334Y-62015714D01*
X148375715Y-62110952D01*
X148328096Y-62158571D01*
X148232858Y-62206190D01*
X147851905Y-62206190D01*
X149280477Y-62015714D02*
X149280477Y-62682381D01*
X149042381Y-61634762D02*
X148804286Y-62349048D01*
X149423334Y-62349048D01*
X184292501Y-110905586D02*
X183816310Y-111238920D01*
X184292501Y-111477015D02*
X183292501Y-111477015D01*
X183292501Y-111096062D01*
X183340120Y-111000824D01*
X183387739Y-110953205D01*
X183482977Y-110905586D01*
X183625834Y-110905586D01*
X183721072Y-110953205D01*
X183768691Y-111000824D01*
X183816310Y-111096062D01*
X183816310Y-111477015D01*
X183292501Y-110000824D02*
X183292501Y-110477015D01*
X183768691Y-110524634D01*
X183721072Y-110477015D01*
X183673453Y-110381777D01*
X183673453Y-110143681D01*
X183721072Y-110048443D01*
X183768691Y-110000824D01*
X183863930Y-109953205D01*
X184102025Y-109953205D01*
X184197263Y-110000824D01*
X184244882Y-110048443D01*
X184292501Y-110143681D01*
X184292501Y-110381777D01*
X184244882Y-110477015D01*
X184197263Y-110524634D01*
X191912501Y-110905586D02*
X191436310Y-111238920D01*
X191912501Y-111477015D02*
X190912501Y-111477015D01*
X190912501Y-111096062D01*
X190960120Y-111000824D01*
X191007739Y-110953205D01*
X191102977Y-110905586D01*
X191245834Y-110905586D01*
X191341072Y-110953205D01*
X191388691Y-111000824D01*
X191436310Y-111096062D01*
X191436310Y-111477015D01*
X190912501Y-110048443D02*
X190912501Y-110238920D01*
X190960120Y-110334158D01*
X191007739Y-110381777D01*
X191150596Y-110477015D01*
X191341072Y-110524634D01*
X191722025Y-110524634D01*
X191817263Y-110477015D01*
X191864882Y-110429396D01*
X191912501Y-110334158D01*
X191912501Y-110143681D01*
X191864882Y-110048443D01*
X191817263Y-110000824D01*
X191722025Y-109953205D01*
X191483930Y-109953205D01*
X191388691Y-110000824D01*
X191341072Y-110048443D01*
X191293453Y-110143681D01*
X191293453Y-110334158D01*
X191341072Y-110429396D01*
X191388691Y-110477015D01*
X191483930Y-110524634D01*
X133802381Y-109386666D02*
X133326190Y-109720000D01*
X133802381Y-109958095D02*
X132802381Y-109958095D01*
X132802381Y-109577142D01*
X132850000Y-109481904D01*
X132897619Y-109434285D01*
X132992857Y-109386666D01*
X133135714Y-109386666D01*
X133230952Y-109434285D01*
X133278571Y-109481904D01*
X133326190Y-109577142D01*
X133326190Y-109958095D01*
X132802381Y-109053333D02*
X132802381Y-108386666D01*
X133802381Y-108815238D01*
X134453334Y-74112381D02*
X134120000Y-73636190D01*
X133881905Y-74112381D02*
X133881905Y-73112381D01*
X134262858Y-73112381D01*
X134358096Y-73160000D01*
X134405715Y-73207619D01*
X134453334Y-73302857D01*
X134453334Y-73445714D01*
X134405715Y-73540952D01*
X134358096Y-73588571D01*
X134262858Y-73636190D01*
X133881905Y-73636190D01*
X135024762Y-73540952D02*
X134929524Y-73493333D01*
X134881905Y-73445714D01*
X134834286Y-73350476D01*
X134834286Y-73302857D01*
X134881905Y-73207619D01*
X134929524Y-73160000D01*
X135024762Y-73112381D01*
X135215239Y-73112381D01*
X135310477Y-73160000D01*
X135358096Y-73207619D01*
X135405715Y-73302857D01*
X135405715Y-73350476D01*
X135358096Y-73445714D01*
X135310477Y-73493333D01*
X135215239Y-73540952D01*
X135024762Y-73540952D01*
X134929524Y-73588571D01*
X134881905Y-73636190D01*
X134834286Y-73731429D01*
X134834286Y-73921905D01*
X134881905Y-74017143D01*
X134929524Y-74064762D01*
X135024762Y-74112381D01*
X135215239Y-74112381D01*
X135310477Y-74064762D01*
X135358096Y-74017143D01*
X135405715Y-73921905D01*
X135405715Y-73731429D01*
X135358096Y-73636190D01*
X135310477Y-73588571D01*
X135215239Y-73540952D01*
X125812254Y-99822261D02*
X125478920Y-99346070D01*
X125240825Y-99822261D02*
X125240825Y-98822261D01*
X125621778Y-98822261D01*
X125717016Y-98869880D01*
X125764635Y-98917499D01*
X125812254Y-99012737D01*
X125812254Y-99155594D01*
X125764635Y-99250832D01*
X125717016Y-99298451D01*
X125621778Y-99346070D01*
X125240825Y-99346070D01*
X126288444Y-99822261D02*
X126478920Y-99822261D01*
X126574159Y-99774642D01*
X126621778Y-99727023D01*
X126717016Y-99584166D01*
X126764635Y-99393690D01*
X126764635Y-99012737D01*
X126717016Y-98917499D01*
X126669397Y-98869880D01*
X126574159Y-98822261D01*
X126383682Y-98822261D01*
X126288444Y-98869880D01*
X126240825Y-98917499D01*
X126193206Y-99012737D01*
X126193206Y-99250832D01*
X126240825Y-99346070D01*
X126288444Y-99393690D01*
X126383682Y-99441309D01*
X126574159Y-99441309D01*
X126669397Y-99393690D01*
X126717016Y-99346070D01*
X126764635Y-99250832D01*
X112212381Y-65412857D02*
X111736190Y-65746191D01*
X112212381Y-65984286D02*
X111212381Y-65984286D01*
X111212381Y-65603333D01*
X111260000Y-65508095D01*
X111307619Y-65460476D01*
X111402857Y-65412857D01*
X111545714Y-65412857D01*
X111640952Y-65460476D01*
X111688571Y-65508095D01*
X111736190Y-65603333D01*
X111736190Y-65984286D01*
X112212381Y-64460476D02*
X112212381Y-65031905D01*
X112212381Y-64746191D02*
X111212381Y-64746191D01*
X111355238Y-64841429D01*
X111450476Y-64936667D01*
X111498095Y-65031905D01*
X111212381Y-63841429D02*
X111212381Y-63746190D01*
X111260000Y-63650952D01*
X111307619Y-63603333D01*
X111402857Y-63555714D01*
X111593333Y-63508095D01*
X111831429Y-63508095D01*
X112021905Y-63555714D01*
X112117143Y-63603333D01*
X112164762Y-63650952D01*
X112212381Y-63746190D01*
X112212381Y-63841429D01*
X112164762Y-63936667D01*
X112117143Y-63984286D01*
X112021905Y-64031905D01*
X111831429Y-64079524D01*
X111593333Y-64079524D01*
X111402857Y-64031905D01*
X111307619Y-63984286D01*
X111260000Y-63936667D01*
X111212381Y-63841429D01*
X120007143Y-75382381D02*
X119673809Y-74906190D01*
X119435714Y-75382381D02*
X119435714Y-74382381D01*
X119816667Y-74382381D01*
X119911905Y-74430000D01*
X119959524Y-74477619D01*
X120007143Y-74572857D01*
X120007143Y-74715714D01*
X119959524Y-74810952D01*
X119911905Y-74858571D01*
X119816667Y-74906190D01*
X119435714Y-74906190D01*
X120959524Y-75382381D02*
X120388095Y-75382381D01*
X120673809Y-75382381D02*
X120673809Y-74382381D01*
X120578571Y-74525238D01*
X120483333Y-74620476D01*
X120388095Y-74668095D01*
X121911905Y-75382381D02*
X121340476Y-75382381D01*
X121626190Y-75382381D02*
X121626190Y-74382381D01*
X121530952Y-74525238D01*
X121435714Y-74620476D01*
X121340476Y-74668095D01*
X138938095Y-83442381D02*
X138938095Y-84251905D01*
X138985714Y-84347143D01*
X139033333Y-84394762D01*
X139128571Y-84442381D01*
X139319048Y-84442381D01*
X139414286Y-84394762D01*
X139461905Y-84347143D01*
X139509524Y-84251905D01*
X139509524Y-83442381D01*
X140509524Y-84442381D02*
X139938095Y-84442381D01*
X140223809Y-84442381D02*
X140223809Y-83442381D01*
X140128571Y-83585238D01*
X140033333Y-83680476D01*
X139938095Y-83728095D01*
X138938095Y-37192381D02*
X138938095Y-38001905D01*
X138985714Y-38097143D01*
X139033333Y-38144762D01*
X139128571Y-38192381D01*
X139319048Y-38192381D01*
X139414286Y-38144762D01*
X139461905Y-38097143D01*
X139509524Y-38001905D01*
X139509524Y-37192381D01*
X139938095Y-37287619D02*
X139985714Y-37240000D01*
X140080952Y-37192381D01*
X140319048Y-37192381D01*
X140414286Y-37240000D01*
X140461905Y-37287619D01*
X140509524Y-37382857D01*
X140509524Y-37478095D01*
X140461905Y-37620952D01*
X139890476Y-38192381D01*
X140509524Y-38192381D01*
X138938095Y-48622381D02*
X138938095Y-49431905D01*
X138985714Y-49527143D01*
X139033333Y-49574762D01*
X139128571Y-49622381D01*
X139319048Y-49622381D01*
X139414286Y-49574762D01*
X139461905Y-49527143D01*
X139509524Y-49431905D01*
X139509524Y-48622381D01*
X139890476Y-48622381D02*
X140509524Y-48622381D01*
X140176190Y-49003333D01*
X140319048Y-49003333D01*
X140414286Y-49050952D01*
X140461905Y-49098571D01*
X140509524Y-49193810D01*
X140509524Y-49431905D01*
X140461905Y-49527143D01*
X140414286Y-49574762D01*
X140319048Y-49622381D01*
X140033333Y-49622381D01*
X139938095Y-49574762D01*
X139890476Y-49527143D01*
X124787381Y-71246905D02*
X125596905Y-71246905D01*
X125692143Y-71199286D01*
X125739762Y-71151667D01*
X125787381Y-71056429D01*
X125787381Y-70865952D01*
X125739762Y-70770714D01*
X125692143Y-70723095D01*
X125596905Y-70675476D01*
X124787381Y-70675476D01*
X125120714Y-69770714D02*
X125787381Y-69770714D01*
X124739762Y-70008810D02*
X125454048Y-70246905D01*
X125454048Y-69627857D01*
X109728095Y-80732381D02*
X109728095Y-81541905D01*
X109775714Y-81637143D01*
X109823333Y-81684762D01*
X109918571Y-81732381D01*
X110109048Y-81732381D01*
X110204286Y-81684762D01*
X110251905Y-81637143D01*
X110299524Y-81541905D01*
X110299524Y-80732381D01*
X111251905Y-80732381D02*
X110775714Y-80732381D01*
X110728095Y-81208571D01*
X110775714Y-81160952D01*
X110870952Y-81113333D01*
X111109048Y-81113333D01*
X111204286Y-81160952D01*
X111251905Y-81208571D01*
X111299524Y-81303810D01*
X111299524Y-81541905D01*
X111251905Y-81637143D01*
X111204286Y-81684762D01*
X111109048Y-81732381D01*
X110870952Y-81732381D01*
X110775714Y-81684762D01*
X110728095Y-81637143D01*
X108458095Y-93072381D02*
X108458095Y-93881905D01*
X108505714Y-93977143D01*
X108553333Y-94024762D01*
X108648571Y-94072381D01*
X108839048Y-94072381D01*
X108934286Y-94024762D01*
X108981905Y-93977143D01*
X109029524Y-93881905D01*
X109029524Y-93072381D01*
X109934286Y-93072381D02*
X109743809Y-93072381D01*
X109648571Y-93120000D01*
X109600952Y-93167619D01*
X109505714Y-93310476D01*
X109458095Y-93500952D01*
X109458095Y-93881905D01*
X109505714Y-93977143D01*
X109553333Y-94024762D01*
X109648571Y-94072381D01*
X109839048Y-94072381D01*
X109934286Y-94024762D01*
X109981905Y-93977143D01*
X110029524Y-93881905D01*
X110029524Y-93643810D01*
X109981905Y-93548571D01*
X109934286Y-93500952D01*
X109839048Y-93453333D01*
X109648571Y-93453333D01*
X109553333Y-93500952D01*
X109505714Y-93548571D01*
X109458095Y-93643810D01*
X150257143Y-78132857D02*
X150304762Y-78180476D01*
X150352381Y-78323333D01*
X150352381Y-78418571D01*
X150304762Y-78561429D01*
X150209524Y-78656667D01*
X150114286Y-78704286D01*
X149923810Y-78751905D01*
X149780952Y-78751905D01*
X149590476Y-78704286D01*
X149495238Y-78656667D01*
X149400000Y-78561429D01*
X149352381Y-78418571D01*
X149352381Y-78323333D01*
X149400000Y-78180476D01*
X149447619Y-78132857D01*
X149447619Y-77751905D02*
X149400000Y-77704286D01*
X149352381Y-77609048D01*
X149352381Y-77370952D01*
X149400000Y-77275714D01*
X149447619Y-77228095D01*
X149542857Y-77180476D01*
X149638095Y-77180476D01*
X149780952Y-77228095D01*
X150352381Y-77799524D01*
X150352381Y-77180476D01*
X149352381Y-76561429D02*
X149352381Y-76466190D01*
X149400000Y-76370952D01*
X149447619Y-76323333D01*
X149542857Y-76275714D01*
X149733333Y-76228095D01*
X149971429Y-76228095D01*
X150161905Y-76275714D01*
X150257143Y-76323333D01*
X150304762Y-76370952D01*
X150352381Y-76466190D01*
X150352381Y-76561429D01*
X150304762Y-76656667D01*
X150257143Y-76704286D01*
X150161905Y-76751905D01*
X149971429Y-76799524D01*
X149733333Y-76799524D01*
X149542857Y-76751905D01*
X149447619Y-76704286D01*
X149400000Y-76656667D01*
X149352381Y-76561429D01*
X136247143Y-108592857D02*
X136294762Y-108640476D01*
X136342381Y-108783333D01*
X136342381Y-108878571D01*
X136294762Y-109021429D01*
X136199524Y-109116667D01*
X136104286Y-109164286D01*
X135913810Y-109211905D01*
X135770952Y-109211905D01*
X135580476Y-109164286D01*
X135485238Y-109116667D01*
X135390000Y-109021429D01*
X135342381Y-108878571D01*
X135342381Y-108783333D01*
X135390000Y-108640476D01*
X135437619Y-108592857D01*
X135437619Y-108211905D02*
X135390000Y-108164286D01*
X135342381Y-108069048D01*
X135342381Y-107830952D01*
X135390000Y-107735714D01*
X135437619Y-107688095D01*
X135532857Y-107640476D01*
X135628095Y-107640476D01*
X135770952Y-107688095D01*
X136342381Y-108259524D01*
X136342381Y-107640476D01*
X136342381Y-106688095D02*
X136342381Y-107259524D01*
X136342381Y-106973810D02*
X135342381Y-106973810D01*
X135485238Y-107069048D01*
X135580476Y-107164286D01*
X135628095Y-107259524D01*
X155337143Y-78132857D02*
X155384762Y-78180476D01*
X155432381Y-78323333D01*
X155432381Y-78418571D01*
X155384762Y-78561429D01*
X155289524Y-78656667D01*
X155194286Y-78704286D01*
X155003810Y-78751905D01*
X154860952Y-78751905D01*
X154670476Y-78704286D01*
X154575238Y-78656667D01*
X154480000Y-78561429D01*
X154432381Y-78418571D01*
X154432381Y-78323333D01*
X154480000Y-78180476D01*
X154527619Y-78132857D01*
X154527619Y-77751905D02*
X154480000Y-77704286D01*
X154432381Y-77609048D01*
X154432381Y-77370952D01*
X154480000Y-77275714D01*
X154527619Y-77228095D01*
X154622857Y-77180476D01*
X154718095Y-77180476D01*
X154860952Y-77228095D01*
X155432381Y-77799524D01*
X155432381Y-77180476D01*
X154527619Y-76799524D02*
X154480000Y-76751905D01*
X154432381Y-76656667D01*
X154432381Y-76418571D01*
X154480000Y-76323333D01*
X154527619Y-76275714D01*
X154622857Y-76228095D01*
X154718095Y-76228095D01*
X154860952Y-76275714D01*
X155432381Y-76847143D01*
X155432381Y-76228095D01*
X145137143Y-69222857D02*
X145184762Y-69270476D01*
X145232381Y-69413333D01*
X145232381Y-69508571D01*
X145184762Y-69651429D01*
X145089524Y-69746667D01*
X144994286Y-69794286D01*
X144803810Y-69841905D01*
X144660952Y-69841905D01*
X144470476Y-69794286D01*
X144375238Y-69746667D01*
X144280000Y-69651429D01*
X144232381Y-69508571D01*
X144232381Y-69413333D01*
X144280000Y-69270476D01*
X144327619Y-69222857D01*
X144327619Y-68841905D02*
X144280000Y-68794286D01*
X144232381Y-68699048D01*
X144232381Y-68460952D01*
X144280000Y-68365714D01*
X144327619Y-68318095D01*
X144422857Y-68270476D01*
X144518095Y-68270476D01*
X144660952Y-68318095D01*
X145232381Y-68889524D01*
X145232381Y-68270476D01*
X144232381Y-67937143D02*
X144232381Y-67318095D01*
X144613333Y-67651429D01*
X144613333Y-67508571D01*
X144660952Y-67413333D01*
X144708571Y-67365714D01*
X144803810Y-67318095D01*
X145041905Y-67318095D01*
X145137143Y-67365714D01*
X145184762Y-67413333D01*
X145232381Y-67508571D01*
X145232381Y-67794286D01*
X145184762Y-67889524D01*
X145137143Y-67937143D01*
X151487143Y-89542857D02*
X151534762Y-89590476D01*
X151582381Y-89733333D01*
X151582381Y-89828571D01*
X151534762Y-89971429D01*
X151439524Y-90066667D01*
X151344286Y-90114286D01*
X151153810Y-90161905D01*
X151010952Y-90161905D01*
X150820476Y-90114286D01*
X150725238Y-90066667D01*
X150630000Y-89971429D01*
X150582381Y-89828571D01*
X150582381Y-89733333D01*
X150630000Y-89590476D01*
X150677619Y-89542857D01*
X150677619Y-89161905D02*
X150630000Y-89114286D01*
X150582381Y-89019048D01*
X150582381Y-88780952D01*
X150630000Y-88685714D01*
X150677619Y-88638095D01*
X150772857Y-88590476D01*
X150868095Y-88590476D01*
X151010952Y-88638095D01*
X151582381Y-89209524D01*
X151582381Y-88590476D01*
X150915714Y-87733333D02*
X151582381Y-87733333D01*
X150534762Y-87971429D02*
X151249048Y-88209524D01*
X151249048Y-87590476D01*
X142597143Y-69222857D02*
X142644762Y-69270476D01*
X142692381Y-69413333D01*
X142692381Y-69508571D01*
X142644762Y-69651429D01*
X142549524Y-69746667D01*
X142454286Y-69794286D01*
X142263810Y-69841905D01*
X142120952Y-69841905D01*
X141930476Y-69794286D01*
X141835238Y-69746667D01*
X141740000Y-69651429D01*
X141692381Y-69508571D01*
X141692381Y-69413333D01*
X141740000Y-69270476D01*
X141787619Y-69222857D01*
X141787619Y-68841905D02*
X141740000Y-68794286D01*
X141692381Y-68699048D01*
X141692381Y-68460952D01*
X141740000Y-68365714D01*
X141787619Y-68318095D01*
X141882857Y-68270476D01*
X141978095Y-68270476D01*
X142120952Y-68318095D01*
X142692381Y-68889524D01*
X142692381Y-68270476D01*
X141692381Y-67365714D02*
X141692381Y-67841905D01*
X142168571Y-67889524D01*
X142120952Y-67841905D01*
X142073333Y-67746667D01*
X142073333Y-67508571D01*
X142120952Y-67413333D01*
X142168571Y-67365714D01*
X142263810Y-67318095D01*
X142501905Y-67318095D01*
X142597143Y-67365714D01*
X142644762Y-67413333D01*
X142692381Y-67508571D01*
X142692381Y-67746667D01*
X142644762Y-67841905D01*
X142597143Y-67889524D01*
X155297143Y-89542857D02*
X155344762Y-89590476D01*
X155392381Y-89733333D01*
X155392381Y-89828571D01*
X155344762Y-89971429D01*
X155249524Y-90066667D01*
X155154286Y-90114286D01*
X154963810Y-90161905D01*
X154820952Y-90161905D01*
X154630476Y-90114286D01*
X154535238Y-90066667D01*
X154440000Y-89971429D01*
X154392381Y-89828571D01*
X154392381Y-89733333D01*
X154440000Y-89590476D01*
X154487619Y-89542857D01*
X154487619Y-89161905D02*
X154440000Y-89114286D01*
X154392381Y-89019048D01*
X154392381Y-88780952D01*
X154440000Y-88685714D01*
X154487619Y-88638095D01*
X154582857Y-88590476D01*
X154678095Y-88590476D01*
X154820952Y-88638095D01*
X155392381Y-89209524D01*
X155392381Y-88590476D01*
X154392381Y-87733333D02*
X154392381Y-87923810D01*
X154440000Y-88019048D01*
X154487619Y-88066667D01*
X154630476Y-88161905D01*
X154820952Y-88209524D01*
X155201905Y-88209524D01*
X155297143Y-88161905D01*
X155344762Y-88114286D01*
X155392381Y-88019048D01*
X155392381Y-87828571D01*
X155344762Y-87733333D01*
X155297143Y-87685714D01*
X155201905Y-87638095D01*
X154963810Y-87638095D01*
X154868571Y-87685714D01*
X154820952Y-87733333D01*
X154773333Y-87828571D01*
X154773333Y-88019048D01*
X154820952Y-88114286D01*
X154868571Y-88161905D01*
X154963810Y-88209524D01*
X137517143Y-108592857D02*
X137564762Y-108640476D01*
X137612381Y-108783333D01*
X137612381Y-108878571D01*
X137564762Y-109021429D01*
X137469524Y-109116667D01*
X137374286Y-109164286D01*
X137183810Y-109211905D01*
X137040952Y-109211905D01*
X136850476Y-109164286D01*
X136755238Y-109116667D01*
X136660000Y-109021429D01*
X136612381Y-108878571D01*
X136612381Y-108783333D01*
X136660000Y-108640476D01*
X136707619Y-108592857D01*
X136612381Y-108259524D02*
X137612381Y-107592857D01*
X136612381Y-107592857D02*
X137612381Y-108259524D01*
X137612381Y-106688095D02*
X137612381Y-107259524D01*
X137612381Y-106973810D02*
X136612381Y-106973810D01*
X136755238Y-107069048D01*
X136850476Y-107164286D01*
X136898095Y-107259524D01*
X96766191Y-75382381D02*
X96766191Y-74382381D01*
X97956667Y-74334762D02*
X97099524Y-75620476D01*
X98290000Y-75382381D02*
X98290000Y-74382381D01*
X98670953Y-74382381D01*
X98766191Y-74430000D01*
X98813810Y-74477619D01*
X98861429Y-74572857D01*
X98861429Y-74715714D01*
X98813810Y-74810952D01*
X98766191Y-74858571D01*
X98670953Y-74906190D01*
X98290000Y-74906190D01*
M02*
